<?xml version="1.0" encoding="UTF-8"?>
<svg width="339px" height="32px" viewBox="0 0 339 32" version="1.1" xmlns="http://www.w3.org/2000/svg" xmlns:xlink="http://www.w3.org/1999/xlink">
    <g id="logo" stroke="none" stroke-width="1" fill="none" fill-rule="evenodd">
        <g id="Group-2" fill-rule="nonzero">
            <g id="Group-3">
                <path d="M8.12698413,20.4335601 L6.5015873,20.4335601 L6.5015873,3.83129252 L8.12698413,3.83129252 L8.12698413,1.27709751 L1.3500312e-13,1.27709751 L1.3500312e-13,3.83129252 L1.7414966,3.83129252 L1.7414966,20.4335601 L1.3500312e-13,20.4335601 L1.3500312e-13,22.9877551 L8.12698413,22.9877551 L8.12698413,20.4335601 Z M29.0249433,17.414966 C29.0249433,19.2725624 27.3995465,20.2013605 25.5419501,20.2013605 C24.4970522,20.2013605 23.3360544,19.7369615 23.3360544,18.5759637 C23.3360544,16.6022676 26.4707483,16.4861678 27.8639456,16.4861678 L29.0249433,16.4861678 L29.0249433,17.414966 Z M40.2866213,22.9877551 L40.2866213,15.6734694 C40.2866213,13.815873 40.6349206,11.9582766 43.0730159,11.9582766 C45.1628118,11.9582766 45.1628118,14.1641723 45.1628118,15.3251701 L45.1628118,23.1038549 L49.5746032,23.1038549 L49.5746032,15.3251701 C49.5746032,13.4675737 50.2712018,11.9582766 52.3609977,11.9582766 C53.8702948,11.9582766 54.3346939,13.1192744 54.3346939,14.5124717 L54.3346939,23.1038549 L58.862585,23.1038549 L58.862585,14.3963719 C58.862585,10.7972789 57.7015873,8.01088435 53.6380952,8.01088435 C51.4321995,8.01088435 50.0390023,8.82358277 48.9941043,10.6811791 C48.1814059,8.93968254 46.5560091,8.01088435 44.4662132,8.01088435 C42.2603175,8.01088435 40.7510204,9.17188209 40.1705215,10.3328798 L40.0544218,10.3328798 L40.0544218,8.35918367 L35.6426304,8.35918367 L35.6426304,20.5496599 L33.0884354,20.5496599 L33.0884354,15.5573696 C33.0884354,10.6811791 31.6952381,7.89478458 26.3546485,7.89478458 C23.9165533,7.89478458 21.478458,8.70748299 19.8530612,10.21678 L22.2911565,12.6548753 C23.2199546,11.6099773 24.4970522,10.9133787 26.0063492,10.9133787 C27.631746,10.9133787 28.9088435,11.9582766 28.9088435,13.5836735 C25.077551,13.5836735 18.924263,13.6997732 18.924263,18.8081633 C18.924263,21.8267574 21.3623583,23.3360544 24.1487528,23.3360544 C26.0063492,23.3360544 27.8639456,22.7555556 28.7927438,21.1301587 L28.9088435,21.1301587 L28.9088435,22.9877551 L40.2866213,22.9877551 L40.2866213,22.9877551 Z" id="Shape" fill="#FF5454"></path>
                <path d="M178.793651,19.969161 L179.14195,19.969161 C179.37415,19.969161 179.606349,19.969161 179.606349,19.6208617 C179.606349,19.2725624 179.37415,19.2725624 179.14195,19.2725624 L178.793651,19.2725624 L178.793651,19.969161 Z M177.980952,18.6920635 L179.02585,18.6920635 C179.37415,18.6920635 180.302948,18.6920635 180.302948,19.6208617 C180.302948,20.2013605 179.954649,20.4335601 179.606349,20.4335601 L180.419048,21.5945578 L179.606349,21.5945578 L178.909751,20.4335601 L178.793651,20.4335601 L178.793651,21.5945578 L177.980952,21.5945578 L177.980952,18.6920635 L177.980952,18.6920635 Z M179.02585,22.4072562 C180.186848,22.4072562 181.115646,21.478458 181.115646,20.2013605 C181.115646,19.0403628 180.186848,17.9954649 179.02585,17.9954649 C177.864853,17.9954649 176.936054,18.924263 176.936054,20.2013605 C177.052154,21.478458 177.864853,22.4072562 179.02585,22.4072562 L179.02585,22.4072562 Z M179.02585,17.414966 C180.535147,17.414966 181.812245,18.6920635 181.812245,20.2013605 C181.812245,21.7106576 180.535147,22.9877551 179.02585,22.9877551 C177.516553,22.9877551 176.239456,21.7106576 176.239456,20.2013605 C176.239456,18.6920635 177.516553,17.414966 179.02585,17.414966 L179.02585,17.414966 Z M124.575057,11.8421769 C122.253061,11.8421769 120.975964,13.3514739 120.975964,15.5573696 C120.975964,17.7632653 122.369161,19.2725624 124.575057,19.2725624 C126.897052,19.2725624 128.17415,17.7632653 128.17415,15.5573696 C128.290249,13.3514739 126.897052,11.8421769 124.575057,11.8421769 L124.575057,11.8421769 Z M143.49932,16.4861678 C142.106122,16.4861678 138.971429,16.6022676 138.971429,18.5759637 C138.971429,19.6208617 140.132426,20.2013605 141.177324,20.2013605 C142.918821,20.2013605 144.660317,19.2725624 144.660317,17.414966 L144.660317,16.4861678 L143.49932,16.4861678 Z M151.394104,8.2430839 L155.805896,8.2430839 L155.805896,10.21678 L155.921995,10.21678 C156.502494,9.05578231 158.011791,7.89478458 160.217687,7.89478458 C162.307483,7.89478458 163.93288,8.70748299 164.745578,10.5650794 C165.790476,8.70748299 167.183673,7.89478458 169.389569,7.89478458 C173.336961,7.89478458 174.614059,10.6811791 174.614059,14.2802721 L174.614059,22.9877551 L170.086168,22.9877551 L170.086168,14.3963719 C170.086168,13.0031746 169.621769,11.8421769 168.112472,11.8421769 C166.022676,11.8421769 165.326077,13.3514739 165.326077,15.2090703 L165.326077,22.9877551 L160.798186,22.9877551 L160.798186,15.2090703 C160.798186,14.1641723 160.914286,11.8421769 158.70839,11.8421769 C156.386395,11.8421769 155.921995,13.6997732 155.921995,15.5573696 L155.921995,22.8716553 L151.394104,22.8716553 L151.394104,8.2430839 L151.394104,8.2430839 Z M144.660317,21.1301587 L144.660317,21.1301587 C143.61542,22.7555556 141.757823,23.3360544 139.900227,23.3360544 C137.113832,23.3360544 134.675737,21.7106576 134.675737,18.8081633 C134.675737,13.6997732 140.829025,13.5836735 144.660317,13.5836735 C144.660317,11.9582766 143.26712,10.9133787 141.757823,10.9133787 C140.248526,10.9133787 138.971429,11.6099773 138.04263,12.6548753 L135.604535,10.21678 C137.229932,8.59138322 139.668027,7.89478458 142.106122,7.89478458 C147.446712,7.89478458 148.839909,10.5650794 148.839909,15.5573696 L148.839909,23.1038549 L144.660317,23.1038549 L144.660317,21.1301587 L144.660317,21.1301587 Z M132.469841,22.9877551 L128.290249,22.9877551 L128.290249,21.014059 L128.290249,21.014059 C127.593651,22.0589569 125.852154,23.3360544 123.762358,23.3360544 C119.350567,23.3360544 116.564172,20.2013605 116.564172,15.6734694 C116.564172,11.6099773 119.118367,7.77868481 123.297959,7.77868481 C125.155556,7.77868481 126.897052,8.2430839 127.94195,9.75238095 L128.05805,9.75238095 L128.05805,-4.61852778e-14 L132.585941,-4.61852778e-14 L132.585941,22.9877551 L132.469841,22.9877551 Z M105.418594,8.2430839 L109.946485,8.2430839 L109.946485,10.5650794 L110.062585,10.5650794 C110.991383,8.82358277 112.268481,7.77868481 114.358277,7.77868481 C114.822676,7.77868481 115.403175,7.77868481 115.867574,7.89478458 L115.867574,12.0743764 C115.287075,11.8421769 114.590476,11.7260771 113.893878,11.7260771 C110.410884,11.7260771 110.062585,13.6997732 110.062585,16.7183673 L110.062585,22.8716553 L105.534694,22.8716553 L105.534694,8.2430839 L105.418594,8.2430839 Z M98.3365079,13.9319728 C98.3365079,12.4226757 97.1755102,11.1455782 95.5501134,11.1455782 C93.5764172,11.1455782 92.4154195,12.5387755 92.2993197,13.9319728 L98.3365079,13.9319728 Z M85.9138322,11.8421769 L81.8503401,11.8421769 L81.8503401,16.7183673 C81.8503401,18.3437642 82.0825397,19.5047619 84.0562358,19.5047619 C84.5206349,19.5047619 85.5655329,19.3886621 85.9138322,19.0403628 L85.9138322,22.8716553 C84.8689342,23.2199546 83.8240363,23.3360544 82.7791383,23.3360544 C79.7605442,23.3360544 77.4385488,22.0589569 77.4385488,18.924263 L77.4385488,11.9582766 L74.5360544,11.9582766 L74.5360544,8.35918367 L77.4385488,8.35918367 L77.4385488,3.94739229 L81.9664399,3.94739229 L81.9664399,8.35918367 L86.029932,8.35918367 L86.029932,11.8421769 L85.9138322,11.8421769 Z M70.2403628,12.5387755 C69.5437642,11.7260771 68.7310658,11.261678 67.570068,11.261678 C66.7573696,11.261678 65.9446712,11.6099773 65.9446712,12.4226757 C65.9446712,14.6285714 73.6072562,12.7709751 73.6072562,18.3437642 C73.6072562,22.0589569 70.0081633,23.2199546 66.7573696,23.2199546 C64.6675737,23.2199546 62.461678,22.7555556 60.952381,21.2462585 L63.7387755,18.2276644 C64.5514739,19.2725624 65.5963719,19.8530612 66.9895692,19.8530612 C68.0344671,19.8530612 69.0793651,19.6208617 69.0793651,18.8081633 C69.0793651,16.4861678 61.41678,18.4598639 61.41678,12.7709751 C61.41678,9.28798186 64.5514739,7.77868481 67.570068,7.77868481 C69.5437642,7.77868481 71.6335601,8.2430839 73.0267574,9.75238095 L70.2403628,12.5387755 Z M102.1678,20.4335601 C100.658503,22.2911565 98.3365079,23.3360544 95.8984127,23.3360544 C91.3705215,23.3360544 87.6553288,20.3174603 87.6553288,15.5573696 C87.6553288,10.7972789 91.2544218,7.77868481 95.8984127,7.77868481 C100.194104,7.77868481 102.864399,10.7972789 102.864399,15.5573696 L102.864399,16.9505669 L92.2993197,16.9505669 C92.647619,18.6920635 93.9247166,19.8530612 95.7823129,19.8530612 C97.29161,19.8530612 98.2204082,19.0403628 99.0331066,18.1115646 L102.1678,20.4335601 Z" id="Shape" fill="#000000"></path>
            </g>
            <g id="MapItOut" transform="translate(198.765714, 0.731429)">
                <path d="M-2.84217094e-14,0.548571429 L7.19238095,0.548571429 L12.16,14.6285714 L12.2209524,14.6285714 L17.2190476,0.548571429 L24.3809524,0.548571429 L24.3809524,22.1257143 L19.6266667,22.1257143 L19.6266667,5.57714286 L19.5657143,5.57714286 L13.8971429,22.1257143 L10.2704762,22.1257143 L4.8152381,5.57714286 L4.75428571,5.57714286 L4.75428571,22.1257143 L-2.84217094e-14,22.1257143 L-2.84217094e-14,0.548571429 Z M37.1809524,20.2666667 L37.12,20.2666667 C36.612061,21.0590516 35.9365122,21.6279348 35.0933333,21.9733333 C34.2501545,22.3187319 33.3612745,22.4914286 32.4266667,22.4914286 C31.7358696,22.4914286 31.0704794,22.3949216 30.4304762,22.2019048 C29.790473,22.0088879 29.2266691,21.719367 28.7390476,21.3333333 C28.2514261,20.9472997 27.8653982,20.4698441 27.5809524,19.9009524 C27.2965065,19.3320606 27.1542857,18.6717498 27.1542857,17.92 C27.1542857,17.0666624 27.3117445,16.3453998 27.6266667,15.7561905 C27.9415889,15.1669812 28.3682513,14.679367 28.9066667,14.2933333 C29.4450821,13.9072997 30.0596791,13.6076201 30.7504762,13.3942857 C31.4412733,13.1809513 32.1574566,13.0234926 32.8990476,12.9219048 C33.6406386,12.820317 34.3822185,12.7593652 35.1238095,12.7390476 C35.8654005,12.7187301 36.551108,12.7085714 37.1809524,12.7085714 C37.1809524,11.895869 36.8914315,11.250796 36.312381,10.7733333 C35.7333304,10.2958706 35.047623,10.0571429 34.2552381,10.0571429 C33.5034883,10.0571429 32.8177809,10.2146016 32.1980952,10.5295238 C31.5784096,10.844446 31.0247643,11.2761877 30.5371429,11.8247619 L28.0990476,9.32571429 C28.9523852,8.53332937 29.9479308,7.9390496 31.0857143,7.54285714 C32.2234978,7.14666469 33.4018987,6.94857143 34.6209524,6.94857143 C35.9619115,6.94857143 37.0641227,7.1161888 37.927619,7.45142857 C38.7911154,7.78666834 39.4819022,8.27936183 40,8.92952381 C40.5180978,9.57968579 40.8787291,10.3771381 41.0819048,11.3219048 C41.2850804,12.2666714 41.3866667,13.358724 41.3866667,14.5980952 L41.3866667,22.1257143 L37.1809524,22.1257143 L37.1809524,20.2666667 Z M36.0533333,15.6342857 C35.7079348,15.6342857 35.2761931,15.6495237 34.7580952,15.68 C34.2399974,15.7104763 33.7422246,15.7968247 33.2647619,15.9390476 C32.7872992,16.0812706 32.3809541,16.2946018 32.0457143,16.5790476 C31.7104745,16.8634935 31.5428571,17.25968 31.5428571,17.767619 C31.5428571,18.3161932 31.7765056,18.7225384 32.2438095,18.9866667 C32.7111134,19.250795 33.1987276,19.3828571 33.7066667,19.3828571 C34.153653,19.3828571 34.5853947,19.3219054 35.0019048,19.2 C35.4184148,19.0780946 35.7892047,18.9053979 36.1142857,18.6819048 C36.4393667,18.4584116 36.6984117,18.17397 36.8914286,17.8285714 C37.0844454,17.4831729 37.1809524,17.0768277 37.1809524,16.6095238 L37.1809524,15.6342857 L36.0533333,15.6342857 Z M44.3733333,7.31428571 L48.5790476,7.31428571 L48.5790476,9.2647619 L48.64,9.2647619 C48.8228581,9.0006336 49.0615858,8.73142994 49.3561905,8.45714286 C49.6507951,8.18285577 49.9961885,7.93396937 50.392381,7.71047619 C50.7885734,7.48698301 51.2203151,7.3041277 51.687619,7.16190476 C52.154923,7.01968183 52.6526958,6.94857143 53.1809524,6.94857143 C54.2780952,6.94857143 55.2736463,7.13650606 56.167619,7.51238095 C57.0615918,7.88825585 57.8285682,8.41650453 58.4685714,9.09714286 C59.1085746,9.77778118 59.6012681,10.5853922 59.9466667,11.52 C60.2920652,12.4546078 60.4647619,13.4806293 60.4647619,14.5980952 C60.4647619,15.6342909 60.3073032,16.6247572 59.992381,17.5695238 C59.6774587,18.5142904 59.2304791,19.3523773 58.6514286,20.0838095 C58.0723781,20.8152418 57.3663534,21.3993629 56.5333333,21.8361905 C55.7003133,22.2730181 54.7555608,22.4914286 53.6990476,22.4914286 C52.7441222,22.4914286 51.8552422,22.3441285 51.032381,22.0495238 C50.2095197,21.7549192 49.5339709,21.252067 49.0057143,20.5409524 L48.9447619,20.5409524 L48.9447619,29.0742857 L44.3733333,29.0742857 L44.3733333,7.31428571 Z M48.5790476,14.72 C48.5790476,15.8374659 48.8990444,16.7415838 49.5390476,17.432381 C50.1790508,18.1231781 51.0780894,18.4685714 52.2361905,18.4685714 C53.3942915,18.4685714 54.2933301,18.1231781 54.9333333,17.432381 C55.5733365,16.7415838 55.8933333,15.8374659 55.8933333,14.72 C55.8933333,13.6025341 55.5733365,12.6984162 54.9333333,12.007619 C54.2933301,11.3168219 53.3942915,10.9714286 52.2361905,10.9714286 C51.0780894,10.9714286 50.1790508,11.3168219 49.5390476,12.007619 C48.8990444,12.6984162 48.5790476,13.6025341 48.5790476,14.72 Z" id="Map" fill="#FF5454"></path>
                <path d="M63.36,0.548571429 L68.1142857,0.548571429 L68.1142857,22.1257143 L63.36,22.1257143 L63.36,0.548571429 Z M81.6457143,10.9714286 L77.6228571,10.9714286 L77.6228571,15.9085714 C77.6228571,16.3149227 77.6431744,16.6857126 77.6838095,17.0209524 C77.7244446,17.3561922 77.8158723,17.6457131 77.9580952,17.8895238 C78.1003182,18.1333346 78.3187287,18.3212692 78.6133333,18.4533333 C78.907938,18.5853975 79.2990452,18.6514286 79.7866667,18.6514286 C80.0304762,18.6514286 80.3504742,18.626032 80.7466667,18.5752381 C81.1428591,18.5244442 81.4425387,18.40762 81.6457143,18.2247619 L81.6457143,22.0342857 C81.1377752,22.2171438 80.6095266,22.3390473 80.0609524,22.4 C79.5123782,22.4609527 78.9739709,22.4914286 78.4457143,22.4914286 C77.6736469,22.4914286 76.9625429,22.4101595 76.312381,22.247619 C75.662219,22.0850786 75.0933358,21.8260335 74.6057143,21.4704762 C74.1180928,21.1149189 73.7371442,20.6527013 73.4628571,20.0838095 C73.1885701,19.5149178 73.0514286,18.824131 73.0514286,18.0114286 L73.0514286,10.9714286 L70.1257143,10.9714286 L70.1257143,7.31428571 L73.0514286,7.31428571 L73.0514286,2.92571429 L77.6228571,2.92571429 L77.6228571,7.31428571 L81.6457143,7.31428571 L81.6457143,10.9714286 Z" id="It" fill="#000000"></path>
                <path d="M83.0780952,11.3371429 C83.0780952,9.6101501 83.3676162,8.0457213 83.9466667,6.64380952 C84.5257172,5.24189775 85.3333282,4.0482589 86.3695238,3.06285714 C87.4057195,2.07745539 88.6349135,1.32063756 90.0571429,0.792380952 C91.4793722,0.264124343 93.0336424,-1.77635684e-15 94.72,-1.77635684e-15 C96.4063576,-1.77635684e-15 97.9606278,0.264124343 99.3828571,0.792380952 C100.805086,1.32063756 102.034281,2.07745539 103.070476,3.06285714 C104.106672,4.0482589 104.914283,5.24189775 105.493333,6.64380952 C106.072384,8.0457213 106.361905,9.6101501 106.361905,11.3371429 C106.361905,13.0641356 106.072384,14.6285644 105.493333,16.0304762 C104.914283,17.432388 104.106672,18.6260268 103.070476,19.6114286 C102.034281,20.5968303 100.805086,21.3536482 99.3828571,21.8819048 C97.9606278,22.4101614 96.4063576,22.6742857 94.72,22.6742857 C93.0336424,22.6742857 91.4793722,22.4101614 90.0571429,21.8819048 C88.6349135,21.3536482 87.4057195,20.5968303 86.3695238,19.6114286 C85.3333282,18.6260268 84.5257172,17.432388 83.9466667,16.0304762 C83.3676162,14.6285644 83.0780952,13.0641356 83.0780952,11.3371429 Z M88.0152381,11.3371429 C88.0152381,12.353021 88.1726968,13.2825355 88.487619,14.1257143 C88.8025413,14.9688931 89.2546002,15.7003144 89.8438095,16.32 C90.4330188,16.9396856 91.1390435,17.4222205 91.9619048,17.767619 C92.784766,18.1130176 93.7041219,18.2857143 94.72,18.2857143 C95.7358781,18.2857143 96.655234,18.1130176 97.4780952,17.767619 C98.3009565,17.4222205 99.0069812,16.9396856 99.5961905,16.32 C100.1854,15.7003144 100.637459,14.9688931 100.952381,14.1257143 C101.267303,13.2825355 101.424762,12.353021 101.424762,11.3371429 C101.424762,10.3415823 101.267303,9.41714712 100.952381,8.56380952 C100.637459,7.71047192 100.1854,6.97397135 99.5961905,6.35428571 C99.0069812,5.73460008 98.3009565,5.25206522 97.4780952,4.90666667 C96.655234,4.56126811 95.7358781,4.38857143 94.72,4.38857143 C93.7041219,4.38857143 92.784766,4.56126811 91.9619048,4.90666667 C91.1390435,5.25206522 90.4330188,5.73460008 89.8438095,6.35428571 C89.2546002,6.97397135 88.8025413,7.71047192 88.487619,8.56380952 C88.1726968,9.41714712 88.0152381,10.3415823 88.0152381,11.3371429 Z M122.971429,22.1257143 L118.582857,22.1257143 L118.582857,20.1142857 L118.521905,20.1142857 C118.359364,20.3987316 118.151112,20.6831732 117.897143,20.967619 C117.643173,21.2520649 117.333335,21.5060306 116.967619,21.7295238 C116.601903,21.953017 116.185399,22.1358723 115.718095,22.2780952 C115.250791,22.4203182 114.74286,22.4914286 114.194286,22.4914286 C113.036185,22.4914286 112.096512,22.3136526 111.375238,21.9580952 C110.653965,21.6025379 110.09524,21.1098444 109.699048,20.48 C109.302855,19.8501556 109.038731,19.1085757 108.906667,18.2552381 C108.774603,17.4019005 108.708571,16.4774653 108.708571,15.4819048 L108.708571,7.31428571 L113.28,7.31428571 L113.28,14.567619 C113.28,14.9942878 113.295238,15.4361882 113.325714,15.8933333 C113.356191,16.3504785 113.447618,16.7720616 113.6,17.1580952 C113.752382,17.5441289 113.98603,17.8590464 114.300952,18.1028571 C114.615875,18.3466679 115.067934,18.4685714 115.657143,18.4685714 C116.246352,18.4685714 116.723808,18.3619058 117.089524,18.1485714 C117.45524,17.935237 117.734602,17.6507954 117.927619,17.2952381 C118.120636,16.9396808 118.247619,16.5384149 118.308571,16.0914286 C118.369524,15.6444422 118.4,15.1771453 118.4,14.6895238 L118.4,7.31428571 L122.971429,7.31428571 L122.971429,22.1257143 Z M135.984762,10.9714286 L131.961905,10.9714286 L131.961905,15.9085714 C131.961905,16.3149227 131.982222,16.6857126 132.022857,17.0209524 C132.063492,17.3561922 132.15492,17.6457131 132.297143,17.8895238 C132.439366,18.1333346 132.657776,18.3212692 132.952381,18.4533333 C133.246986,18.5853975 133.638093,18.6514286 134.125714,18.6514286 C134.369524,18.6514286 134.689522,18.626032 135.085714,18.5752381 C135.481907,18.5244442 135.781586,18.40762 135.984762,18.2247619 L135.984762,22.0342857 C135.476823,22.2171438 134.948574,22.3390473 134.4,22.4 C133.851426,22.4609527 133.313019,22.4914286 132.784762,22.4914286 C132.012695,22.4914286 131.301591,22.4101595 130.651429,22.247619 C130.001267,22.0850786 129.432383,21.8260335 128.944762,21.4704762 C128.45714,21.1149189 128.076192,20.6527013 127.801905,20.0838095 C127.527618,19.5149178 127.390476,18.824131 127.390476,18.0114286 L127.390476,10.9714286 L124.464762,10.9714286 L124.464762,7.31428571 L127.390476,7.31428571 L127.390476,2.92571429 L131.961905,2.92571429 L131.961905,7.31428571 L135.984762,7.31428571 L135.984762,10.9714286 Z" id="Out" fill="#FF5454"></path>
            </g>
        </g>
    </g>
</svg>
