<?xml version="1.0" encoding="UTF-8"?>
<svg width="21px" height="21px" viewBox="0 0 21 21" version="1.1" xmlns="http://www.w3.org/2000/svg" xmlns:xlink="http://www.w3.org/1999/xlink">
    <!-- Generator: Sketch 58 (84663) - https://sketch.com -->
    <title>add</title>
    <desc>Created with Sketch.</desc>
    <g id="Page-2" stroke="none" stroke-width="1" fill="none" fill-rule="evenodd">
        <g id="iPhone-XS-Copy-3" transform="translate(-35.000000, -220.000000)" fill="currentColor" fill-rule="nonzero">
            <g id="Group-4" transform="translate(23.000000, 208.000000)">
                <path d="M22.5,12.6923077 C17.0763462,12.6923077 12.6923077,17.0763462 12.6923077,22.5 C12.6923077,27.9236538 17.0763462,32.3076923 22.5,32.3076923 C27.9236538,32.3076923 32.3076923,27.9236538 32.3076923,22.5 C32.3076923,17.0763462 27.9236538,12.6923077 22.5,12.6923077 Z M27.4038462,26.0209615 L26.0209615,27.4038462 L22.5,23.8828846 L18.9790385,27.4038462 L17.5961538,26.0209615 L21.1171154,22.5 L17.5961538,18.9790385 L18.9790385,17.5961538 L22.5,21.1171154 L26.0209615,17.5961538 L27.4038462,18.9790385 L23.8828846,22.5 L27.4038462,26.0209615 Z" id="add" transform="translate(22.500000, 22.500000) rotate(45.000000) translate(-22.500000, -22.500000) "></path>
            </g>
        </g>
    </g>
</svg>
