<?xml version="1.0" encoding="UTF-8"?>
<svg width="29px" height="28px" viewBox="0 0 29 28" version="1.1" xmlns="http://www.w3.org/2000/svg" xmlns:xlink="http://www.w3.org/1999/xlink">
    <!-- Generator: Sketch 58 (84663) - https://sketch.com -->
    <title>bus-bike</title>
    <desc>Created with Sketch.</desc>
    <g id="Page-2" stroke="none" stroke-width="1" fill="none" fill-rule="evenodd" opacity="0.9">
        <g id="iPhone-XS-Copy-3" transform="translate(-60.000000, -98.000000)" fill="currentColor">
            <g id="Group-5" transform="translate(23.000000, 95.000000)">
                <g id="bus-bike" transform="translate(37.764463, 3.885017)">
                    <path d="M2.31,10.3902 L16.16,10.3902 L16.16,4.6202 L2.31,4.6202 L2.31,10.3902 Z M4.04,17.3102 C3.08,17.3102 2.31,16.5402 2.31,15.5802 C2.31,14.6202 3.08,13.8502 4.04,13.8502 C5,13.8502 5.77,14.6202 5.77,15.5802 C5.77,16.5402 5,17.3102 4.04,17.3102 L4.04,17.3102 Z M18.46,4.6202 C18.46,0.5802 14.33,0.0002 9.23,0.0002 C4.13,0.0002 0,0.5802 0,4.6202 L0,16.1602 C0,17.1702 0.45,18.0802 1.16,18.7202 L1.16,20.7702 C1.16,21.4102 1.67,21.9302 2.31,21.9302 L3.46,21.9302 C4.1,21.9302 4.62,21.4102 4.62,20.7702 L4.62,19.6202 L8.19,19.6202 C9.1,18.3592 10.59,17.5502 12.31,17.5502 C12.64,17.5502 12.95,17.5692 13.25,17.6302 C13.17,17.3592 13.12,17.0602 13.12,16.7402 L13.12,16.7102 C12.85,16.4102 12.69,16.0102 12.69,15.5802 C12.69,14.6202 13.47,13.8502 14.42,13.8502 C14.58,13.8502 14.73,13.8702 14.88,13.9202 L16.16,12.6302 C16.64,12.0402 17.44,11.7502 18.3,11.8102 C18.29,11.7402 18.29,11.6602 18.29,11.5692 C18.29,11.2502 18.35,10.9392 18.46,10.6492 L18.46,4.6202 Z" id="Fill-1"></path>
                    <path d="M20.9273,13.2151 C21.8293,13.2151 22.5683,12.4771 22.5683,11.5741 C22.5683,10.6721 21.8293,9.9341 20.9273,9.9341 C20.0253,9.9341 19.2863,10.6721 19.2863,11.5741 C19.2863,12.4771 20.0253,13.2151 20.9273,13.2151 L20.9273,13.2151 Z M12.3153,18.5461 C10.0183,18.5461 8.2143,20.3511 8.2143,22.6471 C8.2143,24.9441 10.0183,26.7481 12.3153,26.7481 C14.6123,26.7481 16.4163,24.9441 16.4163,22.6471 C16.4163,20.3511 14.6123,18.5461 12.3153,18.5461 L12.3153,18.5461 Z M12.3153,25.5181 C10.7573,25.5181 9.4443,24.2051 9.4443,22.6471 C9.4443,21.0891 10.7573,19.7771 12.3153,19.7771 C13.8733,19.7771 15.1863,21.0891 15.1863,22.6471 C15.1863,24.2051 13.8733,25.5181 12.3153,25.5181 L12.3153,25.5181 Z M17.0723,17.3161 L19.0403,15.3471 L19.6973,16.0031 C20.7633,17.0691 22.1573,17.7261 23.8803,17.7261 L23.8803,16.0851 C22.6503,16.0851 21.6653,15.5931 20.9273,14.8551 L19.3683,13.2971 C18.9583,12.9691 18.5483,12.8051 18.0573,12.8051 C17.5643,12.8051 17.1543,12.9691 16.9083,13.2971 L14.6123,15.5931 C14.2833,15.9211 14.1193,16.3311 14.1193,16.7411 C14.1193,17.2341 14.2833,17.6441 14.6123,17.8901 L17.2363,20.1871 L17.2363,24.2871 L18.8763,24.2871 L18.8763,19.2021 L17.0723,17.3161 Z M23.7983,18.5461 C21.5013,18.5461 19.6973,20.3511 19.6973,22.6471 C19.6973,24.9441 21.5013,26.7481 23.7983,26.7481 C26.0953,26.7481 27.8993,24.9441 27.8993,22.6471 C27.8993,20.3511 26.0953,18.5461 23.7983,18.5461 L23.7983,18.5461 Z M23.7983,25.5181 C22.2393,25.5181 20.9273,24.2051 20.9273,22.6471 C20.9273,21.0891 22.2393,19.7771 23.7983,19.7771 C25.3573,19.7771 26.6683,21.0891 26.6683,22.6471 C26.6683,24.2051 25.3573,25.5181 23.7983,25.5181 L23.7983,25.5181 Z" id="Fill-3"></path>
                </g>
            </g>
        </g>
    </g>
</svg>
