<?xml version="1.0" encoding="UTF-8"?>
<svg width="21px" height="18px" viewBox="0 0 21 18" version="1.1" xmlns="http://www.w3.org/2000/svg" xmlns:xlink="http://www.w3.org/1999/xlink">
    <!-- Generator: Sketch 58 (84663) - https://sketch.com -->
    <title>car</title>
    <desc>Created with Sketch.</desc>
    <g id="Page-2" stroke="none" stroke-width="1" fill="none" fill-rule="evenodd">
        <g id="iPhone-XS-Copy-3" transform="translate(-36.000000, -165.000000)" fill="currentColor" fill-rule="nonzero">
            <g id="car" transform="translate(36.000000, 165.000000)">
                <path d="M17.7168609,1.68850962 C17.4946387,1.06163462 16.8724165,0.615384615 16.1390831,0.615384615 L3.91686092,0.615384615 C3.18352758,0.615384615 2.57241647,1.06163462 2.33908314,1.68850962 L0.027972028,8.05288462 L0.027972028,16.5528846 C0.027972028,17.1372596 0.527972028,17.6153846 1.13908314,17.6153846 L2.25019425,17.6153846 C2.86130536,17.6153846 3.36130536,17.1372596 3.36130536,16.5528846 L3.36130536,15.4903846 L16.6946387,15.4903846 L16.6946387,16.5528846 C16.6946387,17.1372596 17.1946387,17.6153846 17.8057498,17.6153846 L18.9168609,17.6153846 C19.527972,17.6153846 20.027972,17.1372596 20.027972,16.5528846 L20.027972,8.05288462 L17.7168609,1.68850962 Z M3.91686092,12.3028846 C2.99463869,12.3028846 2.25019425,11.5910096 2.25019425,10.7091346 C2.25019425,9.82725962 2.99463869,9.11538462 3.91686092,9.11538462 C4.83908314,9.11538462 5.58352758,9.82725962 5.58352758,10.7091346 C5.58352758,11.5910096 4.83908314,12.3028846 3.91686092,12.3028846 Z M16.1390831,12.3028846 C15.2168609,12.3028846 14.4724165,11.5910096 14.4724165,10.7091346 C14.4724165,9.82725962 15.2168609,9.11538462 16.1390831,9.11538462 C17.0613054,9.11538462 17.8057498,9.82725962 17.8057498,10.7091346 C17.8057498,11.5910096 17.0613054,12.3028846 16.1390831,12.3028846 Z M2.25019425,6.99038462 L3.91686092,2.20913462 L16.1390831,2.20913462 L17.8057498,6.99038462 L2.25019425,6.99038462 Z" id="Shape"></path>
            </g>
        </g>
    </g>
</svg>
