<?xml version="1.0" encoding="UTF-8"?>
<svg width="27px" height="13px" viewBox="0 0 27 13" version="1.1" xmlns="http://www.w3.org/2000/svg" xmlns:xlink="http://www.w3.org/1999/xlink">
    <!-- Generator: Sketch 58 (84663) - https://sketch.com -->
    <title>GO</title>
    <desc>Created with Sketch.</desc>
    <g id="Page-2" stroke="none" stroke-width="1" fill="none" fill-rule="evenodd">
        <g id="iPhone-XS-Copy-6" transform="translate(-144.000000, -316.000000)" fill="currentColor" fill-rule="nonzero">
            <g id="Group-5" transform="translate(133.000000, 297.000000)">
                <g id="Group-4">
                    <path d="M23.1487805,30.8536585 C22.3634107,31.2634167 21.5439067,31.5593487 20.6902439,31.7414634 C19.8365811,31.9235781 18.9658581,32.0146341 18.0780488,32.0146341 C17.1333286,32.0146341 16.2626056,31.8666681 15.4658537,31.5707317 C14.6691017,31.2747953 13.9804907,30.8508158 13.4,30.2987805 C12.8195093,29.7467452 12.3670748,29.0780527 12.0426829,28.2926829 C11.7182911,27.5073131 11.5560976,26.6308991 11.5560976,25.6634146 C11.5560976,24.6959301 11.7182911,23.8195161 12.0426829,23.0341463 C12.3670748,22.2487766 12.8195093,21.5800841 13.4,21.0280488 C13.9804907,20.4760135 14.6691017,20.052034 15.4658537,19.7560976 C16.2626056,19.4601611 17.1333286,19.3121951 18.0780488,19.3121951 C19.0455333,19.3121951 19.9361748,19.4288606 20.75,19.6621951 C21.5638252,19.8955296 22.2780457,20.2967451 22.8926829,20.8658537 L21.0146341,22.9146341 C20.6504047,22.5390225 20.2406527,22.2544725 19.7853659,22.0609756 C19.330079,21.8674787 18.760979,21.7707317 18.0780488,21.7707317 C17.5089402,21.7707317 16.9939047,21.8674787 16.5329268,22.0609756 C16.0719489,22.2544725 15.6764244,22.524795 15.3463415,22.8719512 C15.0162585,23.2191074 14.763009,23.6317049 14.5865854,24.1097561 C14.4101617,24.5878073 14.3219512,25.1056883 14.3219512,25.6634146 C14.3219512,26.2325232 14.4101617,26.7532497 14.5865854,27.2256098 C14.763009,27.6979698 15.0162585,28.1077218 15.3463415,28.454878 C15.6764244,28.8020343 16.0719489,29.0723568 16.5329268,29.2658537 C16.9939047,29.4593506 17.5089402,29.5560976 18.0780488,29.5560976 C18.6585395,29.5560976 19.1593475,29.4906511 19.5804878,29.3597561 C20.0016281,29.2288611 20.3373971,29.0951226 20.5878049,28.9585366 L20.5878049,26.995122 L18.4195122,26.995122 L18.4195122,24.5365854 L23.1487805,24.5365854 L23.1487805,30.8536585 Z M24.8390244,25.6634146 C24.8390244,24.6959301 25.0012179,23.8195161 25.3256098,23.0341463 C25.6500016,22.2487766 26.1024361,21.5800841 26.6829268,21.0280488 C27.2634175,20.4760135 27.9520285,20.052034 28.7487805,19.7560976 C29.5455324,19.4601611 30.4162554,19.3121951 31.3609756,19.3121951 C32.3056958,19.3121951 33.1764188,19.4601611 33.9731707,19.7560976 C34.7699227,20.052034 35.4585337,20.4760135 36.0390244,21.0280488 C36.6195151,21.5800841 37.0719496,22.2487766 37.3963415,23.0341463 C37.7207333,23.8195161 37.8829268,24.6959301 37.8829268,25.6634146 C37.8829268,26.6308991 37.7207333,27.5073131 37.3963415,28.2926829 C37.0719496,29.0780527 36.6195151,29.7467452 36.0390244,30.2987805 C35.4585337,30.8508158 34.7699227,31.2747953 33.9731707,31.5707317 C33.1764188,31.8666681 32.3056958,32.0146341 31.3609756,32.0146341 C30.4162554,32.0146341 29.5455324,31.8666681 28.7487805,31.5707317 C27.9520285,31.2747953 27.2634175,30.8508158 26.6829268,30.2987805 C26.1024361,29.7467452 25.6500016,29.0780527 25.3256098,28.2926829 C25.0012179,27.5073131 24.8390244,26.6308991 24.8390244,25.6634146 Z M27.604878,25.6634146 C27.604878,26.2325232 27.6930885,26.7532497 27.8695122,27.2256098 C28.0459358,27.6979698 28.2991853,28.1077218 28.6292683,28.454878 C28.9593512,28.8020343 29.3548757,29.0723568 29.8158537,29.2658537 C30.2768316,29.4593506 30.7918671,29.5560976 31.3609756,29.5560976 C31.9300841,29.5560976 32.4451196,29.4593506 32.9060976,29.2658537 C33.3670755,29.0723568 33.7626,28.8020343 34.0926829,28.454878 C34.4227659,28.1077218 34.6760154,27.6979698 34.852439,27.2256098 C35.0288627,26.7532497 35.1170732,26.2325232 35.1170732,25.6634146 C35.1170732,25.1056883 35.0288627,24.5878073 34.852439,24.1097561 C34.6760154,23.6317049 34.4227659,23.2191074 34.0926829,22.8719512 C33.7626,22.524795 33.3670755,22.2544725 32.9060976,22.0609756 C32.4451196,21.8674787 31.9300841,21.7707317 31.3609756,21.7707317 C30.7918671,21.7707317 30.2768316,21.8674787 29.8158537,22.0609756 C29.3548757,22.2544725 28.9593512,22.524795 28.6292683,22.8719512 C28.2991853,23.2191074 28.0459358,23.6317049 27.8695122,24.1097561 C27.6930885,24.5878073 27.604878,25.1056883 27.604878,25.6634146 Z" id="GO"></path>
                </g>
            </g>
        </g>
    </g>
</svg>
