<?xml version="1.0" encoding="UTF-8"?>
<svg width="26px" height="26px" viewBox="0 0 26 26" version="1.1" xmlns="http://www.w3.org/2000/svg" xmlns:xlink="http://www.w3.org/1999/xlink">
    <!-- Generator: Sketch 61.2 (89653) - https://sketch.com -->
    <title>help-24px</title>
    <desc>Created with Sketch.</desc>
    <g id="Page-1" stroke="none" stroke-width="1" fill="none" fill-rule="evenodd">
        <g id="Artboard" transform="translate(-1315.000000, -683.000000)">
            <g id="help-24px" transform="translate(1313.000000, 681.000000)">
                <polygon id="Path" points="0 0 30 0 30 30 0 30"></polygon>
                <path d="M15,2.5 C8.1,2.5 2.5,8.1 2.5,15 C2.5,21.9 8.1,27.5 15,27.5 C21.9,27.5 27.5,21.9 27.5,15 C27.5,8.1 21.9,2.5 15,2.5 Z M16.25,23.75 L13.75,23.75 L13.75,21.25 L16.25,21.25 L16.25,23.75 Z M18.8375,14.0625 L17.7125,15.2125 C16.8125,16.125 16.25,16.875 16.25,18.75 L13.75,18.75 L13.75,18.125 C13.75,16.75 14.3125,15.5 15.2125,14.5875 L16.7625,13.0125 C17.225,12.5625 17.5,11.9375 17.5,11.25 C17.5,9.875 16.375,8.75 15,8.75 C13.625,8.75 12.5,9.875 12.5,11.25 L10,11.25 C10,8.4875 12.2375,6.25 15,6.25 C17.7625,6.25 20,8.4875 20,11.25 C20,12.35 19.55,13.35 18.8375,14.0625 Z" id="Shape" fill="#000000" fill-rule="nonzero"></path>
            </g>
        </g>
    </g>
</svg>