<?xml version="1.0" encoding="UTF-8"?>
<svg width="25px" height="13px" viewBox="0 0 25 13" version="1.1" xmlns="http://www.w3.org/2000/svg" xmlns:xlink="http://www.w3.org/1999/xlink">
    <!-- Generator: Sketch 58 (84663) - https://sketch.com -->
    <title>link</title>
    <desc>Created with Sketch.</desc>
    <g id="Page-2" stroke="none" stroke-width="1" fill="none" fill-rule="evenodd">
        <g id="iPhone-XS-Copy-3" transform="translate(-33.000000, -281.000000)">
            <g id="Group" transform="translate(23.000000, 265.000000)">
                <g id="link" transform="translate(8.000000, 8.000000)">
                    <polygon id="Path" points="0 0 29 0 29 29 0 29"></polygon>
                    <path d="M4.7125,14.5 C4.7125,12.43375 6.39208333,10.7541667 8.45833333,10.7541667 L13.2916667,10.7541667 L13.2916667,8.45833333 L8.45833333,8.45833333 C5.12333333,8.45833333 2.41666667,11.165 2.41666667,14.5 C2.41666667,17.835 5.12333333,20.5416667 8.45833333,20.5416667 L13.2916667,20.5416667 L13.2916667,18.2458333 L8.45833333,18.2458333 C6.39208333,18.2458333 4.7125,16.56625 4.7125,14.5 Z M9.66666667,15.7083333 L19.3333333,15.7083333 L19.3333333,13.2916667 L9.66666667,13.2916667 L9.66666667,15.7083333 Z M20.5416667,8.45833333 L15.7083333,8.45833333 L15.7083333,10.7541667 L20.5416667,10.7541667 C22.6079167,10.7541667 24.2875,12.43375 24.2875,14.5 C24.2875,16.56625 22.6079167,18.2458333 20.5416667,18.2458333 L15.7083333,18.2458333 L15.7083333,20.5416667 L20.5416667,20.5416667 C23.8766667,20.5416667 26.5833333,17.835 26.5833333,14.5 C26.5833333,11.165 23.8766667,8.45833333 20.5416667,8.45833333 Z" id="Shape" fill="currentColor" fill-rule="nonzero"></path>
                </g>
            </g>
        </g>
    </g>
</svg>
