<?xml version="1.0" encoding="UTF-8"?>
<svg width="200px" height="32px" viewBox="0 0 200 32" version="1.1" xmlns="http://www.w3.org/2000/svg" xmlns:xlink="http://www.w3.org/1999/xlink">
    <g id="Page-1" stroke="none" stroke-width="1" fill="none" fill-rule="evenodd">
        <g id="IAmsterdam+MapitOut">
            <rect id="Rectangle-Copy-4" fill="#FD000C" x="0" y="0" width="117" height="32"></rect>
            <g id="Group-3-Copy-2" transform="translate(11.000000, 9.000000)" fill-rule="nonzero">
                <path d="M4.33333333,10.8952381 L3.46666667,10.8952381 L3.46666667,2.04285714 L4.33333333,2.04285714 L4.33333333,0.680952381 L1.3500312e-13,0.680952381 L1.3500312e-13,2.04285714 L0.928571429,2.04285714 L0.928571429,10.8952381 L1.3500312e-13,10.8952381 L1.3500312e-13,12.2571429 L4.33333333,12.2571429 L4.33333333,10.8952381 Z M15.4761905,9.28571429 C15.4761905,10.2761905 14.6095238,10.7714286 13.6190476,10.7714286 C13.0619048,10.7714286 12.4428571,10.5238095 12.4428571,9.9047619 C12.4428571,8.85238095 14.1142857,8.79047619 14.8571429,8.79047619 L15.4761905,8.79047619 L15.4761905,9.28571429 Z M21.4809524,12.2571429 L21.4809524,8.35714286 C21.4809524,7.36666667 21.6666667,6.37619048 22.9666667,6.37619048 C24.0809524,6.37619048 24.0809524,7.55238095 24.0809524,8.17142857 L24.0809524,12.3190476 L26.4333333,12.3190476 L26.4333333,8.17142857 C26.4333333,7.18095238 26.8047619,6.37619048 27.9190476,6.37619048 C28.7238095,6.37619048 28.9714286,6.9952381 28.9714286,7.73809524 L28.9714286,12.3190476 L31.3857143,12.3190476 L31.3857143,7.67619048 C31.3857143,5.75714286 30.7666667,4.27142857 28.6,4.27142857 C27.4238095,4.27142857 26.6809524,4.7047619 26.1238095,5.6952381 C25.6904762,4.76666667 24.8238095,4.27142857 23.7095238,4.27142857 C22.5333333,4.27142857 21.7285714,4.89047619 21.4190476,5.50952381 L21.3571429,5.50952381 L21.3571429,4.45714286 L19.0047619,4.45714286 L19.0047619,10.9571429 L17.6428571,10.9571429 L17.6428571,8.2952381 C17.6428571,5.6952381 16.9,4.20952381 14.052381,4.20952381 C12.752381,4.20952381 11.452381,4.64285714 10.5857143,5.44761905 L11.8857143,6.74761905 C12.3809524,6.19047619 13.0619048,5.81904762 13.8666667,5.81904762 C14.7333333,5.81904762 15.4142857,6.37619048 15.4142857,7.24285714 C13.3714286,7.24285714 10.0904762,7.3047619 10.0904762,10.0285714 C10.0904762,11.6380952 11.3904762,12.4428571 12.8761905,12.4428571 C13.8666667,12.4428571 14.8571429,12.1333333 15.352381,11.2666667 L15.4142857,11.2666667 L15.4142857,12.2571429 L21.4809524,12.2571429 L21.4809524,12.2571429 Z" id="Shape" fill="#FFFFFF"></path>
                <path d="M95.3333333,10.647619 L95.5190476,10.647619 C95.6428571,10.647619 95.7666667,10.647619 95.7666667,10.4619048 C95.7666667,10.2761905 95.6428571,10.2761905 95.5190476,10.2761905 L95.3333333,10.2761905 L95.3333333,10.647619 Z M94.9,9.96666667 L95.4571429,9.96666667 C95.6428571,9.96666667 96.1380952,9.96666667 96.1380952,10.4619048 C96.1380952,10.7714286 95.952381,10.8952381 95.7666667,10.8952381 L96.2,11.5142857 L95.7666667,11.5142857 L95.3952381,10.8952381 L95.3333333,10.8952381 L95.3333333,11.5142857 L94.9,11.5142857 L94.9,9.96666667 L94.9,9.96666667 Z M95.4571429,11.947619 C96.0761905,11.947619 96.5714286,11.452381 96.5714286,10.7714286 C96.5714286,10.152381 96.0761905,9.5952381 95.4571429,9.5952381 C94.8380952,9.5952381 94.3428571,10.0904762 94.3428571,10.7714286 C94.4047619,11.452381 94.8380952,11.947619 95.4571429,11.947619 L95.4571429,11.947619 Z M95.4571429,9.28571429 C96.2619048,9.28571429 96.9428571,9.96666667 96.9428571,10.7714286 C96.9428571,11.5761905 96.2619048,12.2571429 95.4571429,12.2571429 C94.652381,12.2571429 93.9714286,11.5761905 93.9714286,10.7714286 C93.9714286,9.96666667 94.652381,9.28571429 95.4571429,9.28571429 L95.4571429,9.28571429 Z M66.4238095,6.31428571 C65.1857143,6.31428571 64.5047619,7.11904762 64.5047619,8.2952381 C64.5047619,9.47142857 65.247619,10.2761905 66.4238095,10.2761905 C67.6619048,10.2761905 68.3428571,9.47142857 68.3428571,8.2952381 C68.4047619,7.11904762 67.6619048,6.31428571 66.4238095,6.31428571 L66.4238095,6.31428571 Z M76.5142857,8.79047619 C75.7714286,8.79047619 74.1,8.85238095 74.1,9.9047619 C74.1,10.4619048 74.7190476,10.7714286 75.2761905,10.7714286 C76.2047619,10.7714286 77.1333333,10.2761905 77.1333333,9.28571429 L77.1333333,8.79047619 L76.5142857,8.79047619 Z M80.7238095,4.3952381 L83.0761905,4.3952381 L83.0761905,5.44761905 L83.1380952,5.44761905 C83.447619,4.82857143 84.252381,4.20952381 85.4285714,4.20952381 C86.5428571,4.20952381 87.4095238,4.64285714 87.8428571,5.63333333 C88.4,4.64285714 89.1428571,4.20952381 90.3190476,4.20952381 C92.4238095,4.20952381 93.1047619,5.6952381 93.1047619,7.61428571 L93.1047619,12.2571429 L90.6904762,12.2571429 L90.6904762,7.67619048 C90.6904762,6.93333333 90.4428571,6.31428571 89.6380952,6.31428571 C88.5238095,6.31428571 88.152381,7.11904762 88.152381,8.10952381 L88.152381,12.2571429 L85.7380952,12.2571429 L85.7380952,8.10952381 C85.7380952,7.55238095 85.8,6.31428571 84.6238095,6.31428571 C83.3857143,6.31428571 83.1380952,7.3047619 83.1380952,8.2952381 L83.1380952,12.1952381 L80.7238095,12.1952381 L80.7238095,4.3952381 L80.7238095,4.3952381 Z M77.1333333,11.2666667 L77.1333333,11.2666667 C76.5761905,12.1333333 75.5857143,12.4428571 74.5952381,12.4428571 C73.1095238,12.4428571 71.8095238,11.5761905 71.8095238,10.0285714 C71.8095238,7.3047619 75.0904762,7.24285714 77.1333333,7.24285714 C77.1333333,6.37619048 76.3904762,5.81904762 75.5857143,5.81904762 C74.7809524,5.81904762 74.1,6.19047619 73.6047619,6.74761905 L72.3047619,5.44761905 C73.1714286,4.58095238 74.4714286,4.20952381 75.7714286,4.20952381 C78.6190476,4.20952381 79.3619048,5.63333333 79.3619048,8.2952381 L79.3619048,12.3190476 L77.1333333,12.3190476 L77.1333333,11.2666667 L77.1333333,11.2666667 Z M70.6333333,12.2571429 L68.4047619,12.2571429 L68.4047619,11.2047619 L68.4047619,11.2047619 C68.0333333,11.7619048 67.1047619,12.4428571 65.9904762,12.4428571 C63.6380952,12.4428571 62.152381,10.7714286 62.152381,8.35714286 C62.152381,6.19047619 63.5142857,4.14761905 65.7428571,4.14761905 C66.7333333,4.14761905 67.6619048,4.3952381 68.2190476,5.2 L68.2809524,5.2 L68.2809524,-4.61852778e-14 L70.6952381,-4.61852778e-14 L70.6952381,12.2571429 L70.6333333,12.2571429 Z M56.2095238,4.3952381 L58.6238095,4.3952381 L58.6238095,5.63333333 L58.6857143,5.63333333 C59.1809524,4.7047619 59.8619048,4.14761905 60.9761905,4.14761905 C61.2238095,4.14761905 61.5333333,4.14761905 61.7809524,4.20952381 L61.7809524,6.43809524 C61.4714286,6.31428571 61.1,6.25238095 60.7285714,6.25238095 C58.8714286,6.25238095 58.6857143,7.3047619 58.6857143,8.91428571 L58.6857143,12.1952381 L56.2714286,12.1952381 L56.2714286,4.3952381 L56.2095238,4.3952381 Z M52.4333333,7.42857143 C52.4333333,6.62380952 51.8142857,5.94285714 50.947619,5.94285714 C49.8952381,5.94285714 49.2761905,6.68571429 49.2142857,7.42857143 L52.4333333,7.42857143 Z M45.8095238,6.31428571 L43.6428571,6.31428571 L43.6428571,8.91428571 C43.6428571,9.78095238 43.7666667,10.4 44.8190476,10.4 C45.0666667,10.4 45.6238095,10.3380952 45.8095238,10.152381 L45.8095238,12.1952381 C45.252381,12.3809524 44.6952381,12.4428571 44.1380952,12.4428571 C42.5285714,12.4428571 41.2904762,11.7619048 41.2904762,10.0904762 L41.2904762,6.37619048 L39.7428571,6.37619048 L39.7428571,4.45714286 L41.2904762,4.45714286 L41.2904762,2.1047619 L43.7047619,2.1047619 L43.7047619,4.45714286 L45.8714286,4.45714286 L45.8714286,6.31428571 L45.8095238,6.31428571 Z M37.452381,6.68571429 C37.0809524,6.25238095 36.647619,6.0047619 36.0285714,6.0047619 C35.5952381,6.0047619 35.1619048,6.19047619 35.1619048,6.62380952 C35.1619048,7.8 39.247619,6.80952381 39.247619,9.78095238 C39.247619,11.7619048 37.3285714,12.3809524 35.5952381,12.3809524 C34.4809524,12.3809524 33.3047619,12.1333333 32.5,11.3285714 L33.9857143,9.71904762 C34.4190476,10.2761905 34.9761905,10.5857143 35.7190476,10.5857143 C36.2761905,10.5857143 36.8333333,10.4619048 36.8333333,10.0285714 C36.8333333,8.79047619 32.747619,9.84285714 32.747619,6.80952381 C32.747619,4.95238095 34.4190476,4.14761905 36.0285714,4.14761905 C37.0809524,4.14761905 38.1952381,4.3952381 38.9380952,5.2 L37.452381,6.68571429 Z M54.4761905,10.8952381 C53.6714286,11.8857143 52.4333333,12.4428571 51.1333333,12.4428571 C48.7190476,12.4428571 46.7380952,10.8333333 46.7380952,8.2952381 C46.7380952,5.75714286 48.6571429,4.14761905 51.1333333,4.14761905 C53.4238095,4.14761905 54.847619,5.75714286 54.847619,8.2952381 L54.847619,9.03809524 L49.2142857,9.03809524 C49.4,9.96666667 50.0809524,10.5857143 51.0714286,10.5857143 C51.8761905,10.5857143 52.3714286,10.152381 52.8047619,9.65714286 L54.4761905,10.8952381 Z" id="Shape" fill="#000000"></path>
            </g>
            <g id="MapitOut" transform="translate(128.152000, 10.384000)" fill-rule="nonzero">
                <path d="M2.496,11.616 L2.496,2.928 L2.528,2.928 L5.392,11.616 L7.296,11.616 L10.272,2.928 L10.304,2.928 L10.304,11.616 L12.8,11.616 L12.8,0.288 L9.04,0.288 L6.416,7.68 L6.384,7.68 L3.776,0.288 L-1.13686838e-13,0.288 L-1.13686838e-13,11.616 L2.496,11.616 Z M17.024,11.808 C17.5146667,11.808 17.9813333,11.7173333 18.424,11.536 C18.8666667,11.3546667 19.2213333,11.056 19.488,10.64 L19.488,10.64 L19.52,10.64 L19.52,11.616 L21.728,11.616 L21.728,7.664 C21.728,7.01333333 21.6746667,6.44 21.568,5.944 C21.4613333,5.448 21.272,5.02933333 21,4.688 C20.728,4.34666667 20.3653333,4.088 19.912,3.912 C19.4586667,3.736 18.88,3.648 18.176,3.648 C17.536,3.648 16.9173333,3.752 16.32,3.96 C15.7226667,4.168 15.2,4.48 14.752,4.896 L14.752,4.896 L16.032,6.208 C16.288,5.92 16.5786667,5.69333333 16.904,5.528 C17.2293333,5.36266667 17.5893333,5.28 17.984,5.28 C18.4,5.28 18.76,5.40533333 19.064,5.656 C19.368,5.90666667 19.52,6.24533333 19.52,6.672 C19.1893333,6.672 18.8293333,6.67733333 18.44,6.688 C18.0506667,6.69866667 17.6613333,6.73066667 17.272,6.784 C16.8826667,6.83733333 16.5066667,6.92 16.144,7.032 C15.7813333,7.144 15.4586667,7.30133333 15.176,7.504 C14.8933333,7.70666667 14.6693333,7.96266667 14.504,8.272 C14.3386667,8.58133333 14.256,8.96 14.256,9.408 C14.256,9.80266667 14.3306667,10.1493333 14.48,10.448 C14.6293333,10.7466667 14.832,10.9973333 15.088,11.2 C15.344,11.4026667 15.64,11.5546667 15.976,11.656 C16.312,11.7573333 16.6613333,11.808 17.024,11.808 Z M17.696,10.176 C17.4293333,10.176 17.1733333,10.1066667 16.928,9.968 C16.6826667,9.82933333 16.56,9.616 16.56,9.328 C16.56,9.06133333 16.648,8.85333333 16.824,8.704 C17,8.55466667 17.2133333,8.44266667 17.464,8.368 C17.7146667,8.29333333 17.976,8.248 18.248,8.232 C18.52,8.216 18.7466667,8.208 18.928,8.208 L18.928,8.208 L19.52,8.208 L19.52,8.72 C19.52,8.96533333 19.4693333,9.17866667 19.368,9.36 C19.2666667,9.54133333 19.1306667,9.69066667 18.96,9.808 C18.7893333,9.92533333 18.5946667,10.016 18.376,10.08 C18.1573333,10.144 17.9306667,10.176 17.696,10.176 Z M25.696,15.264 L25.696,10.784 L25.728,10.784 C26.0053333,11.1573333 26.36,11.4213333 26.792,11.576 C27.224,11.7306667 27.6906667,11.808 28.192,11.808 C28.7466667,11.808 29.2426667,11.6933333 29.68,11.464 C30.1173333,11.2346667 30.488,10.928 30.792,10.544 C31.096,10.16 31.3306667,9.72 31.496,9.224 C31.6613333,8.728 31.744,8.208 31.744,7.664 C31.744,7.07733333 31.6533333,6.53866667 31.472,6.048 C31.2906667,5.55733333 31.032,5.13333333 30.696,4.776 C30.36,4.41866667 29.9573333,4.14133333 29.488,3.944 C29.0186667,3.74666667 28.496,3.648 27.92,3.648 C27.6426667,3.648 27.3813333,3.68533333 27.136,3.76 C26.8906667,3.83466667 26.664,3.93066667 26.456,4.048 C26.248,4.16533333 26.0666667,4.296 25.912,4.44 C25.7573333,4.584 25.632,4.72533333 25.536,4.864 L25.536,4.864 L25.504,4.864 L25.504,3.84 L23.296,3.84 L23.296,15.264 L25.696,15.264 Z M27.424,9.696 C26.816,9.696 26.344,9.51466667 26.008,9.152 C25.672,8.78933333 25.504,8.31466667 25.504,7.728 C25.504,7.14133333 25.672,6.66666667 26.008,6.304 C26.344,5.94133333 26.816,5.76 27.424,5.76 C28.032,5.76 28.504,5.94133333 28.84,6.304 C29.176,6.66666667 29.344,7.14133333 29.344,7.728 C29.344,8.31466667 29.176,8.78933333 28.84,9.152 C28.504,9.51466667 28.032,9.696 27.424,9.696 Z" id="Map" fill="#FD000C"></path>
                <path d="M34.224,2.784 C34.608,2.784 34.936,2.648 35.208,2.376 C35.48,2.104 35.616,1.776 35.616,1.392 C35.616,1.008 35.48,0.68 35.208,0.408 C34.936,0.136 34.608,7.10542736e-15 34.224,7.10542736e-15 C33.84,7.10542736e-15 33.512,0.136 33.24,0.408 C32.968,0.68 32.832,1.008 32.832,1.392 C32.832,1.776 32.968,2.104 33.24,2.376 C33.512,2.648 33.84,2.784 34.224,2.784 Z M35.424,11.616 L35.424,3.84 L33.024,3.84 L33.024,11.616 L35.424,11.616 Z M40.608,11.808 C40.8853333,11.808 41.168,11.792 41.456,11.76 C41.744,11.728 42.0213333,11.664 42.288,11.568 L42.288,11.568 L42.288,9.568 C42.1813333,9.664 42.024,9.72533333 41.816,9.752 C41.608,9.77866667 41.44,9.792 41.312,9.792 C41.056,9.792 40.8506667,9.75733333 40.696,9.688 C40.5413333,9.61866667 40.4266667,9.52 40.352,9.392 C40.2773333,9.264 40.2293333,9.112 40.208,8.936 C40.1866667,8.76 40.176,8.56533333 40.176,8.352 L40.176,8.352 L40.176,5.76 L42.288,5.76 L42.288,3.84 L40.176,3.84 L40.176,1.536 L37.776,1.536 L37.776,3.84 L36.24,3.84 L36.24,5.76 L37.776,5.76 L37.776,9.456 C37.776,9.88266667 37.848,10.2453333 37.992,10.544 C38.136,10.8426667 38.336,11.0853333 38.592,11.272 C38.848,11.4586667 39.1466667,11.5946667 39.488,11.68 C39.8293333,11.7653333 40.2026667,11.808 40.608,11.808 Z" id="it" fill="#000000"></path>
                <path d="M49.152,11.904 C50.0373333,11.904 50.8533333,11.7653333 51.6,11.488 C52.3466667,11.2106667 52.992,10.8133333 53.536,10.296 C54.08,9.77866667 54.504,9.152 54.808,8.416 C55.112,7.68 55.264,6.85866667 55.264,5.952 C55.264,5.04533333 55.112,4.224 54.808,3.488 C54.504,2.752 54.08,2.12533333 53.536,1.608 C52.992,1.09066667 52.3466667,0.693333333 51.6,0.416 C50.8533333,0.138666667 50.0373333,0 49.152,0 C48.2666667,0 47.4506667,0.138666667 46.704,0.416 C45.9573333,0.693333333 45.312,1.09066667 44.768,1.608 C44.224,2.12533333 43.8,2.752 43.496,3.488 C43.192,4.224 43.04,5.04533333 43.04,5.952 C43.04,6.85866667 43.192,7.68 43.496,8.416 C43.8,9.152 44.224,9.77866667 44.768,10.296 C45.312,10.8133333 45.9573333,11.2106667 46.704,11.488 C47.4506667,11.7653333 48.2666667,11.904 49.152,11.904 Z M49.152,9.6 C48.6186667,9.6 48.136,9.50933333 47.704,9.328 C47.272,9.14666667 46.9013333,8.89333333 46.592,8.568 C46.2826667,8.24266667 46.0453333,7.85866667 45.88,7.416 C45.7146667,6.97333333 45.632,6.48533333 45.632,5.952 C45.632,5.42933333 45.7146667,4.944 45.88,4.496 C46.0453333,4.048 46.2826667,3.66133333 46.592,3.336 C46.9013333,3.01066667 47.272,2.75733333 47.704,2.576 C48.136,2.39466667 48.6186667,2.304 49.152,2.304 C49.6853333,2.304 50.168,2.39466667 50.6,2.576 C51.032,2.75733333 51.4026667,3.01066667 51.712,3.336 C52.0213333,3.66133333 52.2586667,4.048 52.424,4.496 C52.5893333,4.944 52.672,5.42933333 52.672,5.952 C52.672,6.48533333 52.5893333,6.97333333 52.424,7.416 C52.2586667,7.85866667 52.0213333,8.24266667 51.712,8.568 C51.4026667,8.89333333 51.032,9.14666667 50.6,9.328 C50.168,9.50933333 49.6853333,9.6 49.152,9.6 Z M59.376,11.808 C59.664,11.808 59.9306667,11.7706667 60.176,11.696 C60.4213333,11.6213333 60.64,11.5253333 60.832,11.408 C61.024,11.2906667 61.1866667,11.1573333 61.32,11.008 C61.4533333,10.8586667 61.5626667,10.7093333 61.648,10.56 L61.648,10.56 L61.68,10.56 L61.68,11.616 L63.984,11.616 L63.984,3.84 L61.584,3.84 L61.584,7.712 C61.584,7.968 61.568,8.21333333 61.536,8.448 C61.504,8.68266667 61.4373333,8.89333333 61.336,9.08 C61.2346667,9.26666667 61.088,9.416 60.896,9.528 C60.704,9.64 60.4533333,9.696 60.144,9.696 C59.8346667,9.696 59.5973333,9.632 59.432,9.504 C59.2666667,9.376 59.144,9.21066667 59.064,9.008 C58.984,8.80533333 58.936,8.584 58.92,8.344 C58.904,8.104 58.896,7.872 58.896,7.648 L58.896,7.648 L58.896,3.84 L56.496,3.84 L56.496,8.128 C56.496,8.65066667 56.5306667,9.136 56.6,9.584 C56.6693333,10.032 56.808,10.4213333 57.016,10.752 C57.224,11.0826667 57.5173333,11.3413333 57.896,11.528 C58.2746667,11.7146667 58.768,11.808 59.376,11.808 Z M69.136,11.808 C69.4133333,11.808 69.696,11.792 69.984,11.76 C70.272,11.728 70.5493333,11.664 70.816,11.568 L70.816,11.568 L70.816,9.568 C70.7093333,9.664 70.552,9.72533333 70.344,9.752 C70.136,9.77866667 69.968,9.792 69.84,9.792 C69.584,9.792 69.3786667,9.75733333 69.224,9.688 C69.0693333,9.61866667 68.9546667,9.52 68.88,9.392 C68.8053333,9.264 68.7573333,9.112 68.736,8.936 C68.7146667,8.76 68.704,8.56533333 68.704,8.352 L68.704,8.352 L68.704,5.76 L70.816,5.76 L70.816,3.84 L68.704,3.84 L68.704,1.536 L66.304,1.536 L66.304,3.84 L64.768,3.84 L64.768,5.76 L66.304,5.76 L66.304,9.456 C66.304,9.88266667 66.376,10.2453333 66.52,10.544 C66.664,10.8426667 66.864,11.0853333 67.12,11.272 C67.376,11.4586667 67.6746667,11.5946667 68.016,11.68 C68.3573333,11.7653333 68.7306667,11.808 69.136,11.808 Z" id="Out" fill="#FD000C"></path>
            </g>
        </g>
    </g>
</svg>
