<?xml version="1.0" encoding="UTF-8"?>
<svg width="13px" height="22px" viewBox="0 0 13 22" version="1.1" xmlns="http://www.w3.org/2000/svg" xmlns:xlink="http://www.w3.org/1999/xlink">
    <!-- Generator: Sketch 58 (84663) - https://sketch.com -->
    <title>walk</title>
    <desc>Created with Sketch.</desc>
    <g id="Page-2" stroke="none" stroke-width="1" fill="none" fill-rule="evenodd">
        <g id="iPhone-XS-Copy-3" transform="translate(-85.000000, -141.000000)" fill="currentColor" fill-rule="nonzero">
            <g id="ic_directions_walk_24px" transform="translate(79.500000, 140.500000)">
                <path d="M12.9375,5.27083333 C13.9916667,5.27083333 14.8541667,4.40833333 14.8541667,3.35416667 C14.8541667,2.3 13.9916667,1.4375 12.9375,1.4375 C11.8833333,1.4375 11.0208333,2.3 11.0208333,3.35416667 C11.0208333,4.40833333 11.8833333,5.27083333 12.9375,5.27083333 Z M6.70833333,22.0416667 L8.72083333,22.0416667 L10.4458333,14.375 L12.4583333,16.2916667 L12.4583333,22.0416667 L14.375,22.0416667 L14.375,14.8541667 L12.3625,12.9375 L12.9375,10.0625 C14.1833333,11.5 16.1,12.4583333 18.2083333,12.4583333 L18.2083333,10.5416667 C16.3875,10.5416667 14.8541667,9.58333333 14.0875,8.24166667 L13.1291667,6.70833333 C12.7458333,6.13333333 12.1708333,5.75 11.5,5.75 C11.2125,5.75 11.0208333,5.84583333 10.7333333,5.84583333 L5.75,7.95416667 L5.75,12.4583333 L7.66666667,12.4583333 L7.66666667,9.2 L9.39166667,8.52916667 L6.70833333,22.0416667 Z" id="walk"></path>
            </g>
        </g>
    </g>
</svg>
