<svg viewBox="0 0 28 28" xmlns="http://www.w3.org/2000/svg">
    <g fill="none" fill-rule="evenodd">
        <circle fill="#FD6500" cx="14" cy="14" r="13"/>
        <path d="M8.39 7.582v12.027h11.22V7.582c-1.482-.649-3.352-.976-5.61-.976-2.258 0-4.128.327-5.61.976z" stroke="#fff" stroke-width=".941"/>
        <path d="M21.36 10.48v3.26M6.64 10.48v3.26" stroke="#fff" stroke-width="1.28"/>
        <path d="M7.882 14.47h12.236v5.648H7.882V14.47zm2.918 3.69a.96.96 0 1 0 0-1.92.96.96 0 0 0 0 1.92zm6.4 0a.96.96 0 1 0 0-1.92.96.96 0 0 0 0 1.92z" fill="#fff"/>
        <path d="M9.2 20.08c0 .884 0 1.6.96 1.6s.96-.716.96-1.6M16.88 20.08c0 .884 0 1.6.96 1.6s.96-.716.96-1.6" fill="#fff"/>
    </g>
</svg>
