<svg viewBox="0 0 28 28" xmlns="http://www.w3.org/2000/svg">
    <g fill="none" fill-rule="evenodd">
        <circle fill="#87C010" cx="14" cy="14" r="13"/>
        <path d="M21.802 11.627l-7.61-5.669a.37.37 0 0 0-.44 0l-7.609 5.67a.35.35 0 0 0-.124.395c.05.144.188.24.344.24h1.811v7.441a.35.35 0 0 0 .107.251c.068.067.16.104.256.104h10.871a.366.366 0 0 0 .256-.104.35.35 0 0 0 .106-.25v-7.441h1.812a.362.362 0 0 0 .344-.241.35.35 0 0 0-.124-.396zm-5.655 3.471h-1.45v1.418h-1.45v-1.418h-1.449v-1.417h1.45v-1.417h1.45v1.417h1.449v1.417z" fill="#fff" fill-rule="nonzero"/>
    </g>
</svg>
