<svg width="28" height="28" xmlns="http://www.w3.org/2000/svg">
    <g fill="none" fill-rule="evenodd">
        <circle fill="#942190" cx="14" cy="14" r="13"/>
        <g fill-rule="nonzero" fill="#FFF">
            <path d="M11.335 12.731h5.368v2.482h-5.368zM9.904 10.11c-.44 0-.799.402-.799.897v.645c.005.043.007.087.007.131v4.378c0 .045-.002.088-.007.131v.646c0 .495.359.897.8.897.44 0 .798-.402.798-.897v-5.931c0-.495-.358-.897-.799-.897zM7.974 11.206c-.28 0-.507.259-.507.577v4.378c0 .319.227.578.507.578s.507-.26.507-.578v-4.378c0-.318-.228-.577-.507-.577zM18.926 11.783c0-.044.002-.088.007-.13v-.646c0-.495-.359-.897-.8-.897-.44 0-.798.402-.798.897v5.931c0 .495.358.897.799.897.44 0 .799-.402.799-.897v-.645a1.334 1.334 0 0 1-.007-.131v-4.379zM20.064 11.206c-.28 0-.507.259-.507.577v4.378c0 .319.228.578.507.578.28 0 .507-.26.507-.578v-4.378c0-.318-.227-.577-.507-.577zM6.937 14.16c0 .27-.21.49-.468.49A.48.48 0 0 1 6 14.16v-.375c0-.27.21-.49.469-.49a.48.48 0 0 1 .468.49v.375zM21.007 14.16c0 .27.21.49.469.49a.48.48 0 0 0 .469-.49v-.375a.48.48 0 0 0-.469-.49.48.48 0 0 0-.469.49v.375z"/>
        </g>
    </g>
</svg>
