<svg viewBox="0 0 16 16" xmlns="http://www.w3.org/2000/svg">
    <path d="M6.479.291A7.834 7.834 0 0 0 1.473 3.68h2.87C4.833 2.144 5.587.94 6.479.29zm3.042 0c.892.65 1.639 1.853 2.136 3.388h2.863A7.82 7.82 0 0 0 9.52.29zm-1.134.29V3.68h2.51c-.56-1.673-1.438-2.87-2.51-3.097zm-.781.007C6.555.838 5.69 2.02 5.138 3.678h2.468V.589zm-6.589 3.88a7.852 7.852 0 0 0-.823 3.138h3.513c.027-1.12.172-2.178.414-3.139H1.017zm3.9 0c-.243.953-.38 2.025-.408 3.138h3.097V4.467h-2.69zm3.47 0v3.138h3.139a14.361 14.361 0 0 0-.408-3.139h-2.73zm3.492 0c.235.96.387 2.018.414 3.138h3.513a7.852 7.852 0 0 0-.823-3.139h-3.104zM.194 8.393a7.822 7.822 0 0 0 .823 3.139h3.097a14.734 14.734 0 0 1-.407-3.139H.194zm4.315 0c.027 1.12.165 2.185.407 3.139h2.69V8.394H4.509zm3.878 0v3.139h2.731a13.9 13.9 0 0 0 .408-3.139H8.387zm3.906 0a14.734 14.734 0 0 1-.407 3.139h3.097a7.822 7.822 0 0 0 .823-3.139h-3.513zm-10.82 3.927a7.805 7.805 0 0 0 4.992 3.388c-.885-.65-1.632-1.853-2.122-3.388h-2.87zm3.665 0c.553 1.666 1.41 2.855 2.468 3.097v-3.097H5.138zm3.25 0v3.104c1.078-.228 1.956-1.424 2.509-3.104h-2.51zm3.27 0c-.491 1.535-1.238 2.738-2.123 3.388a7.805 7.805 0 0 0 4.992-3.388h-2.87z"
          fill="currentColor" fill-rule="nonzero"/>
</svg>
