<svg viewBox="0 0 18 18" xmlns="http://www.w3.org/2000/svg">
    <g fill="currentColor" fill-rule="nonzero">
        <path d="M1.469 17.189h2.393v-2.64h2.546v2.64h2.394a.86.86 0 0 0 .856-.863V1.373a.854.854 0 0 0-.85-.856H1.463c-.47 0-.85.383-.85.856v14.953a.86.86 0 0 0 .856.863zM6.026 3.412c0-.148.12-.268.266-.268h.741c.147 0 .266.12.266.268v1.174c0 .148-.119.268-.266.268h-.74a.267.267 0 0 1-.267-.268V3.412zm0 3.714c0-.148.12-.268.266-.268h.741c.147 0 .266.12.266.268V8.3c0 .148-.119.268-.266.268h-.74a.267.267 0 0 1-.267-.268V7.126zm0 3.715c0-.148.12-.268.266-.268h.741c.147 0 .266.12.266.268v1.174c0 .148-.119.268-.266.268h-.74a.267.267 0 0 1-.267-.268V10.84zM2.971 3.41c0-.147.12-.267.266-.267h.741c.147 0 .266.12.266.268v1.174c0 .148-.119.268-.266.268h-.74a.267.267 0 0 1-.267-.268V3.412zm0 3.715c0-.148.12-.268.266-.268h.741c.147 0 .266.12.266.268V8.3c0 .148-.119.268-.266.268h-.74A.267.267 0 0 1 2.97 8.3V7.126zm0 3.715c0-.148.12-.268.266-.268h.741c.147 0 .266.12.266.268v1.174c0 .148-.119.268-.266.268h-.74a.267.267 0 0 1-.267-.268V10.84zM11.533 17.189h.944v-2.64h2.885v2.64h.944a.86.86 0 0 0 .856-.863V9.425a.854.854 0 0 0-.85-.857h-4.785c-.47 0-.85.384-.85.857v6.901a.86.86 0 0 0 .856.863zm3.048-6.348c0-.148.119-.268.266-.268h.74c.148 0 .267.12.267.268v1.174c0 .148-.12.268-.266.268h-.741a.267.267 0 0 1-.266-.268V10.84zm-2.596 0c0-.148.12-.268.266-.268h.741c.147 0 .266.12.266.268v1.174c0 .148-.119.268-.266.268h-.74a.267.267 0 0 1-.267-.268V10.84z"/>
    </g>
</svg>
