<svg viewBox="0 0 16 17" xmlns="http://www.w3.org/2000/svg">
    <path d="M3.986.388C3.765.055 3.543 0 3.156.055c-.72.111-1.384.166-1.772.61C-1.218 3.542.055 7.528 4.152 11.957c4.152 4.43 8.028 5.924 11.073 3.6.498-.388.609-1.053.72-1.773.11-.387.055-.609-.277-.885-.056 0-3.156-2.104-3.156-2.104-.775-.222-1.55.83-1.938 1.329-.443.498-.885.609-1.273.332-2.048-1.384-4.041-3.544-5.26-5.647-.276-.443-.166-.886.388-1.218.498-.443 1.606-1.108 1.44-1.883 0 0-1.827-3.266-1.883-3.321z"
          fill="currentColor" fill-rule="evenodd"/>
</svg>
