<svg width="28" height="28" xmlns="http://www.w3.org/2000/svg">
    <g fill="none" fill-rule="evenodd">
        <circle fill="#4D4D4D" cx="14" cy="14" r="13"/>
        <g transform="translate(9 5.5)" fill="#FFF" fill-rule="nonzero">
            <path d="M9.322 9.135l-1.177-1.98c-.019-.019-.019-.037-.019-.056l-.299-2.466a1.135 1.135 0 0 0-.765-.934l-1.869-.617a1.168 1.168 0 0 0-1.046.187L1.7 5.212a.103.103 0 0 0-.056.093l-.355 2.672c-.019.075.037.15.112.15l.71.111c.075.02.15-.037.168-.112l.411-2.13c0-.037.037-.074.075-.093l.84-.41a.141.141 0 0 1 .206.149l-1.289 6.912c0 .019-.019.037-.019.056L.075 16.215a.145.145 0 0 0 .037.187l.747.56c.056.038.15.038.187-.018l3.064-3.699c.019-.019.019-.037.019-.056l.71-2.784c.037-.112.186-.149.242-.056l1.457 2.018c0 .019.02.019.02.037l1.531 4.316c.019.075.093.112.168.093l.878-.261c.075-.019.112-.094.094-.168L8.126 11.9c0-.019-.018-.037-.018-.037l-1.98-3.008c-.02-.037-.038-.093-.02-.13l.673-1.72a.058.058 0 0 1 .112 0l.187.486c0 .019 0 .019.019.038l1.42 2.148c.037.056.13.075.186.037l.617-.373c.019-.056.037-.15 0-.206z"/>
            <circle cx="6.744" cy="1.551" r="1.382"/>
        </g>
    </g>
</svg>
