<svg width="56" height="28" xmlns="http://www.w3.org/2000/svg">
    <g fill="none" fill-rule="evenodd">
        <path fill="#4D4D4D" d="M27.571 11v2.571H25v.858h2.571V17h.858v-2.571H31v-.858h-2.571V11z"/>
        <path d="M36.42 7.601V19.58h11.16V7.601c-1.475-.642-3.334-.966-5.58-.966s-4.105.324-5.58.966z" stroke="#4D4D4D"/>
        <path d="M49.36 10.48v3.26" stroke="#4D4D4D" stroke-width="1.36"/>
        <path d="M34.64 10.48v3.26" stroke="#4D4D4D" stroke-width="1.36" opacity=".1"/>
        <path d="M35.882 14.47h12.236v5.648H35.882V14.47zm2.918 3.69a.96.96 0 1 0 0-1.92.96.96 0 0 0 0 1.92zm6.4 0a.96.96 0 1 0 0-1.92.96.96 0 0 0 0 1.92z" fill="#4D4D4D"/>
        <path d="M37.2 20.08c0 .884 0 1.6.96 1.6s.96-.716.96-1.6M44.88 20.08c0 .884 0 1.6.96 1.6s.96-.716.96-1.6" fill="#4D4D4D"/>
        <g transform="translate(3 7)">
            <circle stroke="#4D4D4D" cx="3.5" cy="11" r="3"/>
            <circle stroke="#4D4D4D" cx="13" cy="11" r="3"/>
            <path d="M9.833 2.661a1.332 1.332 0 1 0 0-2.661 1.33 1.33 0 1 0 0 2.661" fill="#4D4D4D" fill-rule="nonzero"/>
            <path d="M9.855 5.943L8.513 4.497 6.995 6.056l2.16 1.595a.1.1 0 0 1 .04.09l-.397 4.254a.2.2 0 0 1-.2.181h-.703a.2.2 0 0 1-.2-.2V8.6l-2.87-1.595a1.12 1.12 0 0 1-.575-.975c0-.287.107-.55.286-.747l2.817-2.821c.35-.394.838-.332.838-.332.59 0 .9.516.9.516L10.554 5h2.021c.11 0 .2.09.2.2v.575a.2.2 0 0 1-.2.2H9.928a.1.1 0 0 1-.073-.032z" fill="#4D4D4D" fill-rule="nonzero"/>
        </g>
    </g>
</svg>
