<?xml version="1.0" encoding="UTF-8"?>
<svg width="28px" height="28px" viewBox="0 0 28 28" version="1.1" xmlns="http://www.w3.org/2000/svg" xmlns:xlink="http://www.w3.org/1999/xlink">
    <!-- Generator: Sketch 53.2 (72643) - https://sketchapp.com -->
    <title>Button/Icon/place/gym</title>
    <desc>Created with Sketch.</desc>
    <g id="Button/Icon/place/gym" stroke="none" stroke-width="1" fill="none" fill-rule="evenodd">
        <circle id="circle" fill="#942190" cx="14" cy="14" r="13"></circle>
        <g id="Icons/Gym-white" transform="translate(6.000000, 6.000000)" fill="#FFFFFF">
            <g id="Group-15" transform="translate(0.000000, 3.986159)">
                <polygon id="Rectangle-path" fill-rule="nonzero" points="5.33489827 2.74519534 10.702926 2.74519534 10.702926 5.22694181 5.33489827 5.22694181"></polygon>
                <path d="M3.9044872,0.123570934 C3.46388374,0.123570934 3.10548374,0.525810632 3.10548374,1.02045675 L3.10548374,1.66603334 C3.10973564,1.70915634 3.11221592,1.7528229 3.11221592,1.79703303 L3.11221592,6.17528531 C3.11221592,6.21949544 3.10973564,6.263162 3.10548374,6.306285 L3.10548374,6.95204278 C3.10548374,7.44650771 3.46388374,7.8487474 3.9044872,7.8487474 C4.34509066,7.8487474 4.70349066,7.44650771 4.70349066,6.95204278 L4.70349066,1.02045675 C4.70349066,0.525810632 4.34509066,0.123570934 3.9044872,0.123570934 Z" id="Shape" fill-rule="nonzero"></path>
                <path d="M1.9735917,1.21976471 C1.69402907,1.21976471 1.46655225,1.47868386 1.46655225,1.79703303 L1.46655225,6.17528531 C1.46655225,6.49345329 1.6938519,6.75237244 1.9735917,6.75237244 C2.25333149,6.75237244 2.4808083,6.49345329 2.4808083,6.17528531 L2.4808083,1.79721422 C2.48063114,1.47886505 2.25315433,1.21976471 1.9735917,1.21976471 Z" id="Shape" fill-rule="nonzero"></path>
                <path d="M12.9257855,1.79721422 C12.9257855,1.75300409 12.9282657,1.70915634 12.9325176,1.66621453 L12.9325176,1.02063794 C12.9325176,0.525991821 12.5741176,0.123752123 12.1335142,0.123752123 C11.6929107,0.123752123 11.3345107,0.525991821 11.3345107,1.02063794 L11.3345107,6.95222397 C11.3345107,7.4466889 11.6929107,7.84892859 12.1335142,7.84892859 C12.5741176,7.84892859 12.9325176,7.4466889 12.9325176,6.95222397 L12.9325176,6.30646618 C12.9282657,6.26334319 12.9257855,6.21967663 12.9257855,6.1754665 L12.9257855,1.79721422 Z" id="Shape" fill-rule="nonzero"></path>
                <path d="M14.0644097,1.21976471 C13.7848471,1.21976471 13.5571931,1.47868386 13.5571931,1.79703303 L13.5571931,6.17528531 C13.5571931,6.49345329 13.7846699,6.75237244 14.0644097,6.75237244 C14.3439723,6.75237244 14.5714491,6.49345329 14.5714491,6.17528531 L14.5714491,1.79721422 C14.5714491,1.47886505 14.3439723,1.21976471 14.0644097,1.21976471 Z" id="Shape" fill-rule="nonzero"></path>
                <path d="M0.937190311,4.17350865 C0.937190311,4.44384272 0.727429758,4.66290028 0.468595156,4.66290028 L0.468595156,4.66290028 C0.209760554,4.66290028 0,4.44384272 0,4.17350865 L0,3.7986285 C0,3.52829443 0.209760554,3.30923687 0.468595156,3.30923687 L0.468595156,3.30923687 C0.727429758,3.30923687 0.937190311,3.52829443 0.937190311,3.7986285 L0.937190311,4.17350865 Z" id="Shape" fill-rule="nonzero"></path>
                <path d="M15.0074464,4.17350865 C15.0074464,4.44384272 15.2172069,4.66290028 15.4760415,4.66290028 L15.4760415,4.66290028 C15.7348761,4.66290028 15.9446367,4.44384272 15.9446367,4.17350865 L15.9446367,3.7986285 C15.9446367,3.52829443 15.7348761,3.30923687 15.4760415,3.30923687 L15.4760415,3.30923687 C15.2172069,3.30923687 15.0074464,3.52829443 15.0074464,3.7986285 L15.0074464,4.17350865 Z" id="Shape" fill-rule="nonzero"></path>
            </g>
        </g>
    </g>
</svg>