<?xml version="1.0" encoding="UTF-8"?>
<svg width="28px" height="28px" viewBox="0 0 28 28" version="1.1" xmlns="http://www.w3.org/2000/svg" xmlns:xlink="http://www.w3.org/1999/xlink">
    <!-- Generator: Sketch 53.2 (72643) - https://sketchapp.com -->
    <title>Button/Icon/place/health centre</title>
    <desc>Created with Sketch.</desc>
    <g id="Button/Icon/place/health-centre" stroke="none" stroke-width="1" fill="none" fill-rule="evenodd">
        <circle id="circle" fill="#87C010" cx="14" cy="14" r="13"></circle>
        <g id="Icons/health-centre-white" transform="translate(6.000000, 5.000000)" fill="#FFFFFF" fill-rule="nonzero">
            <path d="M15.8015562,6.62725288 L8.19175175,0.957964467 C8.06201999,0.861762709 7.88265772,0.861762709 7.75292596,0.957964467 L0.143121562,6.62725288 C0.0192637513,6.71929971 -0.030686602,6.87837891 0.0190063491,7.02252833 C0.0686993002,7.16667775 0.206945409,7.26372707 0.362516336,7.26367371 L2.17447547,7.26367371 L2.17447547,14.7044985 C2.17442256,14.7984872 2.21258336,14.8886412 2.28055172,14.9551012 C2.34852009,15.0215613 2.44072016,15.0588752 2.53684193,15.0588235 L13.408017,15.0588235 C13.5041387,15.0588752 13.5963388,15.0215613 13.6643072,14.9551012 C13.7322755,14.8886412 13.7704363,14.7984872 13.7703834,14.7044985 L13.7703834,7.26367371 L15.5822157,7.26367371 C15.7377471,7.26368704 15.8759412,7.16665074 15.9256265,7.02253963 C15.9753117,6.87842851 15.9254057,6.71938718 15.8016105,6.62732374 L15.8015562,6.62725288 Z M10.1465376,10.0982736 L8.69707178,10.0982736 L8.69707178,11.5155736 L7.24760593,11.5155736 L7.24760593,10.0982736 L5.79814009,10.0982736 L5.79814009,8.68097367 L7.24760593,8.68097367 L7.24760593,7.26367371 L8.69707178,7.26367371 L8.69707178,8.68097367 L10.1465376,8.68097367 L10.1465376,10.0982736 Z" id="Shape"></path>
        </g>
    </g>
</svg>