<svg width="28" height="28" xmlns="http://www.w3.org/2000/svg">
    <g transform="translate(5.5 6.5)" fill="none" fill-rule="evenodd">
        <circle stroke="#4D4D4D" cx="3.719" cy="11.688" r="3.188"/>
        <circle stroke="#4D4D4D" cx="13.813" cy="11.688" r="3.188"/>
        <path d="M10.448 2.828a1.415 1.415 0 1 0 0-2.828 1.414 1.414 0 0 0 0 2.828" fill="#4D4D4D" fill-rule="nonzero"/>
        <path d="M10.472 6.316L9.045 4.778 7.432 6.434 9.73 8.132a.1.1 0 0 1 .04.09l-.424 4.534a.2.2 0 0 1-.199.181h-.77a.2.2 0 0 1-.2-.2v-3.6L5.125 7.441a1.19 1.19 0 0 1-.61-1.036c0-.305.114-.585.303-.793l2.994-2.998c.371-.42.89-.353.89-.353.626 0 .956.548.956.548l1.555 2.502h2.16c.11 0 .2.09.2.2v.636a.2.2 0 0 1-.2.2h-2.828a.1.1 0 0 1-.074-.032z" fill="#4D4D4D" fill-rule="nonzero"/>
    </g>
</svg>
