<?xml version="1.0" encoding="UTF-8"?>
<svg width="28px" height="28px" viewBox="0 0 28 28" version="1.1" xmlns="http://www.w3.org/2000/svg" xmlns:xlink="http://www.w3.org/1999/xlink">
    <!-- Generator: Sketch 53.2 (72643) - https://sketchapp.com -->
    <title>Button/Icon/place/work</title>
    <desc>Created with Sketch.</desc>
    <g id="Button/Icon/place/work" stroke="none" stroke-width="1" fill="none" fill-rule="evenodd">
        <circle id="Oval-16" fill="#FF0000" cx="14" cy="14" r="13"></circle>
        <g id="Icons/Work-white" transform="translate(6.000000, 6.000000)" fill="#FFFFFF" fill-rule="nonzero">
            <path d="M14.1579832,3.56479434 L11.0117647,3.56479434 L11.0117647,2.00088456 C11.0117647,1.13716105 10.3074597,0.43697479 9.43865546,0.43697479 L6.29243697,0.43697479 C5.42363273,0.43697479 4.71932773,1.13716105 4.71932773,2.00088456 L4.71932773,3.56479434 L1.57310924,3.56479434 C0.704304999,3.56479434 0,4.26498059 0,5.12870411 L0,13.7302079 C0,14.5939314 0.704304999,15.2941176 1.57310924,15.2941176 L14.1579832,15.2941176 C15.0267874,15.2941176 15.7310924,14.5939314 15.7310924,13.7302079 L15.7310924,5.12870411 C15.7310924,4.26498059 15.0267874,3.56479434 14.1579832,3.56479434 Z M6.29243697,2.00088456 L9.43865546,2.00088456 L9.43865546,3.56479434 L6.29243697,3.56479434 L6.29243697,2.00088456 Z" id="Shape"></path>
        </g>
    </g>
</svg>