<svg width="56" height="28" xmlns="http://www.w3.org/2000/svg">
    <g fill="none" fill-rule="evenodd">
        <path d="M14 0h28c7.732 0 14 6.268 14 14s-6.268 14-14 14H14C6.268 28 0 21.732 0 14S6.268 0 14 0z" fill="#4D4D4D"/>
        <path fill="#FFF" d="M27.571 11v2.571H25v.858h2.571V17h.858v-2.571H31v-.858h-2.571V11z"/>
        <path d="M36.42 7.601V19.58h11.16V7.601c-1.475-.642-3.334-.966-5.58-.966s-4.105.324-5.58.966z" stroke="#FFF"/>
        <path d="M49.36 10.48v3.26M34.64 10.48v3.26" stroke="#FFF" stroke-width="1.36"/>
        <path d="M35.882 14.47h12.236v5.648H35.882V14.47zm2.918 3.69a.96.96 0 1 0 0-1.92.96.96 0 0 0 0 1.92zm6.4 0a.96.96 0 1 0 0-1.92.96.96 0 0 0 0 1.92z" fill="#FFF"/>
        <path d="M37.2 20.08c0 .884 0 1.6.96 1.6s.96-.716.96-1.6M44.88 20.08c0 .884 0 1.6.96 1.6s.96-.716.96-1.6" fill="#FFF"/>
        <g transform="translate(5 7)">
            <circle stroke="#FFF" cx="3.471" cy="10.908" r="2.975"/>
            <circle stroke="#FFF" cx="12.892" cy="10.908" r="2.975"/>
            <path d="M9.751 2.64a1.32 1.32 0 1 0 0-2.64 1.32 1.32 0 0 0 0 2.64" fill="#FFF" fill-rule="nonzero"/>
            <path d="M9.772 5.893L8.442 4.46 6.937 6.005l2.14 1.582a.1.1 0 0 1 .041.09l-.394 4.216a.2.2 0 0 1-.199.182h-.694a.2.2 0 0 1-.2-.2V8.527L4.784 6.946a1.11 1.11 0 0 1-.57-.967c0-.284.107-.546.284-.74L7.292 2.44c.347-.39.83-.33.83-.33.585 0 .893.513.893.513l1.451 2.335h2.003c.11 0 .2.09.2.2v.567a.2.2 0 0 1-.2.2H9.846a.1.1 0 0 1-.074-.032z" fill="#FFF" fill-rule="nonzero"/>
        </g>
    </g>
</svg>
