<?xml version="1.0" encoding="UTF-8"?>
<svg width="32px" height="32px" viewBox="0 0 32 32" version="1.1" xmlns="http://www.w3.org/2000/svg" xmlns:xlink="http://www.w3.org/1999/xlink">
    <!-- Generator: Sketch 53.2 (72643) - https://sketchapp.com -->
    <title>app icon - 40/40 versie-pinned-tab</title>
    <desc>Created with Sketch.</desc>
    <defs>
        <radialGradient cx="69.1307695%" cy="66.8301639%" fx="69.1307695%" fy="66.8301639%" r="65.039545%" gradientTransform="translate(0.691308,0.668302),rotate(-134.426279),scale(1.000000,0.903247),translate(-0.691308,-0.668302)" id="radialGradient-1">
            <stop stop-color="#FFFFFF" offset="0%"></stop>
            <stop stop-color="#FFFFFF" offset="60.4576448%"></stop>
            <stop stop-color="#E6E3E3" offset="100%"></stop>
        </radialGradient>
        <path d="M15.9619979,4 C14.3362415,4 10.3661536,7.55702412 8,11.2714801 L10.1697535,11.2714801 C10.1697535,16.5618131 14.9207656,23.4903723 15.9635566,23.4903723 C16.9736143,23.4903723 21.7573597,16.4339971 21.7573597,11.2714801 L23.9271133,11.2714801 C21.5594009,7.55702412 17.5222876,4 15.9619979,4 Z M15.9292646,14.8846185 C14.7106089,14.8846185 13.6119499,14.150518 13.1455906,13.024627 C12.6792312,11.898736 12.937013,10.6027794 13.7987327,9.74105968 C14.6604524,8.87933999 15.956409,8.62155819 17.0823001,9.08791752 C18.2081911,9.55427686 18.9422916,10.6529358 18.9422916,11.8715915 C18.9422916,13.5356404 17.5933134,14.8846185 15.9292646,14.8846185 L15.9292646,14.8846185 Z" id="path-2"></path>
        <filter x="-47.1%" y="-23.1%" width="169.1%" height="156.4%" filterUnits="objectBoundingBox" id="filter-3">
            <feOffset dx="-2" dy="1" in="SourceAlpha" result="shadowOffsetOuter1"></feOffset>
            <feGaussianBlur stdDeviation="1.5" in="shadowOffsetOuter1" result="shadowBlurOuter1"></feGaussianBlur>
            <feColorMatrix values="0 0 0 0 0.343989158   0 0 0 0 0.0167963456   0 0 0 0 0.0167963456  0 0 0 0.444633152 0" type="matrix" in="shadowBlurOuter1"></feColorMatrix>
        </filter>
    </defs>
    <g id="Symbols" stroke="none" stroke-width="1" fill="none" fill-rule="evenodd">
        <g id="App-Icon/40-40-version">
            <g id="app-icon---40/40-versie">
                <rect id="Rectangle-path" fill="#000000" fill-rule="nonzero" x="0" y="0" width="31.8760488" height="31.8760488" rx="7.228125"></rect>
                <ellipse id="Oval" fill="#FFFFFF" fill-rule="nonzero" cx="15.9273073" cy="23.5920239" rx="10.6773073" ry="4.34202392"></ellipse>
                <ellipse id="Oval" fill="#000000" fill-rule="nonzero" cx="16" cy="23.5" rx="8.25" ry="3.25"></ellipse>
                <circle id="Oval-6" fill="url(#radialGradient-1)" cx="9.875" cy="26.125" r="1.875"></circle>
                <g id="Shape" fill-rule="nonzero">
                    <use fill="black" fill-opacity="1" filter="url(#filter-3)" xlink:href="#path-2"></use>
                    <use fill="#FFFFFF" xlink:href="#path-2"></use>
                </g>
            </g>
        </g>
    </g>
</svg>