<?xml version="1.0" encoding="UTF-8"?>
<svg width="200px" height="32px" viewBox="0 0 200 32" version="1.1" xmlns="http://www.w3.org/2000/svg" xmlns:xlink="http://www.w3.org/1999/xlink">
    <!-- Generator: Sketch 59.1 (86144) - https://sketch.com -->
    <title>Group</title>
    <desc>Created with Sketch.</desc>
    <g id="Page-1" stroke="none" stroke-width="1" fill="none" fill-rule="evenodd">
        <g id="Artboard-Copy-10" transform="translate(-47.000000, 0.000000)">
            <g id="Group" transform="translate(47.000000, 0.000000)">
                <rect id="Rectangle" fill="#FD000C" x="0" y="0" width="117" height="32"></rect>
                <g id="Group-3" transform="translate(11.000000, 9.000000)" fill-rule="nonzero">
                    <path d="M4.33333333,10.8952381 L3.46666667,10.8952381 L3.46666667,2.04285714 L4.33333333,2.04285714 L4.33333333,0.680952381 L1.3500312e-13,0.680952381 L1.3500312e-13,2.04285714 L0.928571429,2.04285714 L0.928571429,10.8952381 L1.3500312e-13,10.8952381 L1.3500312e-13,12.2571429 L4.33333333,12.2571429 L4.33333333,10.8952381 Z M15.4761905,9.28571429 C15.4761905,10.2761905 14.6095238,10.7714286 13.6190476,10.7714286 C13.0619048,10.7714286 12.4428571,10.5238095 12.4428571,9.9047619 C12.4428571,8.85238095 14.1142857,8.79047619 14.8571429,8.79047619 L15.4761905,8.79047619 L15.4761905,9.28571429 Z M21.4809524,12.2571429 L21.4809524,8.35714286 C21.4809524,7.36666667 21.6666667,6.37619048 22.9666667,6.37619048 C24.0809524,6.37619048 24.0809524,7.55238095 24.0809524,8.17142857 L24.0809524,12.3190476 L26.4333333,12.3190476 L26.4333333,8.17142857 C26.4333333,7.18095238 26.8047619,6.37619048 27.9190476,6.37619048 C28.7238095,6.37619048 28.9714286,6.9952381 28.9714286,7.73809524 L28.9714286,12.3190476 L31.3857143,12.3190476 L31.3857143,7.67619048 C31.3857143,5.75714286 30.7666667,4.27142857 28.6,4.27142857 C27.4238095,4.27142857 26.6809524,4.7047619 26.1238095,5.6952381 C25.6904762,4.76666667 24.8238095,4.27142857 23.7095238,4.27142857 C22.5333333,4.27142857 21.7285714,4.89047619 21.4190476,5.50952381 L21.3571429,5.50952381 L21.3571429,4.45714286 L19.0047619,4.45714286 L19.0047619,10.9571429 L17.6428571,10.9571429 L17.6428571,8.2952381 C17.6428571,5.6952381 16.9,4.20952381 14.052381,4.20952381 C12.752381,4.20952381 11.452381,4.64285714 10.5857143,5.44761905 L11.8857143,6.74761905 C12.3809524,6.19047619 13.0619048,5.81904762 13.8666667,5.81904762 C14.7333333,5.81904762 15.4142857,6.37619048 15.4142857,7.24285714 C13.3714286,7.24285714 10.0904762,7.3047619 10.0904762,10.0285714 C10.0904762,11.6380952 11.3904762,12.4428571 12.8761905,12.4428571 C13.8666667,12.4428571 14.8571429,12.1333333 15.352381,11.2666667 L15.4142857,11.2666667 L15.4142857,12.2571429 L21.4809524,12.2571429 L21.4809524,12.2571429 Z" id="Shape" fill="#FFFFFF"></path>
                    <path d="M95.3333333,10.647619 L95.5190476,10.647619 C95.6428571,10.647619 95.7666667,10.647619 95.7666667,10.4619048 C95.7666667,10.2761905 95.6428571,10.2761905 95.5190476,10.2761905 L95.3333333,10.2761905 L95.3333333,10.647619 Z M94.9,9.96666667 L95.4571429,9.96666667 C95.6428571,9.96666667 96.1380952,9.96666667 96.1380952,10.4619048 C96.1380952,10.7714286 95.952381,10.8952381 95.7666667,10.8952381 L96.2,11.5142857 L95.7666667,11.5142857 L95.3952381,10.8952381 L95.3333333,10.8952381 L95.3333333,11.5142857 L94.9,11.5142857 L94.9,9.96666667 L94.9,9.96666667 Z M95.4571429,11.947619 C96.0761905,11.947619 96.5714286,11.452381 96.5714286,10.7714286 C96.5714286,10.152381 96.0761905,9.5952381 95.4571429,9.5952381 C94.8380952,9.5952381 94.3428571,10.0904762 94.3428571,10.7714286 C94.4047619,11.452381 94.8380952,11.947619 95.4571429,11.947619 L95.4571429,11.947619 Z M95.4571429,9.28571429 C96.2619048,9.28571429 96.9428571,9.96666667 96.9428571,10.7714286 C96.9428571,11.5761905 96.2619048,12.2571429 95.4571429,12.2571429 C94.652381,12.2571429 93.9714286,11.5761905 93.9714286,10.7714286 C93.9714286,9.96666667 94.652381,9.28571429 95.4571429,9.28571429 L95.4571429,9.28571429 Z M66.4238095,6.31428571 C65.1857143,6.31428571 64.5047619,7.11904762 64.5047619,8.2952381 C64.5047619,9.47142857 65.247619,10.2761905 66.4238095,10.2761905 C67.6619048,10.2761905 68.3428571,9.47142857 68.3428571,8.2952381 C68.4047619,7.11904762 67.6619048,6.31428571 66.4238095,6.31428571 L66.4238095,6.31428571 Z M76.5142857,8.79047619 C75.7714286,8.79047619 74.1,8.85238095 74.1,9.9047619 C74.1,10.4619048 74.7190476,10.7714286 75.2761905,10.7714286 C76.2047619,10.7714286 77.1333333,10.2761905 77.1333333,9.28571429 L77.1333333,8.79047619 L76.5142857,8.79047619 Z M80.7238095,4.3952381 L83.0761905,4.3952381 L83.0761905,5.44761905 L83.1380952,5.44761905 C83.447619,4.82857143 84.252381,4.20952381 85.4285714,4.20952381 C86.5428571,4.20952381 87.4095238,4.64285714 87.8428571,5.63333333 C88.4,4.64285714 89.1428571,4.20952381 90.3190476,4.20952381 C92.4238095,4.20952381 93.1047619,5.6952381 93.1047619,7.61428571 L93.1047619,12.2571429 L90.6904762,12.2571429 L90.6904762,7.67619048 C90.6904762,6.93333333 90.4428571,6.31428571 89.6380952,6.31428571 C88.5238095,6.31428571 88.152381,7.11904762 88.152381,8.10952381 L88.152381,12.2571429 L85.7380952,12.2571429 L85.7380952,8.10952381 C85.7380952,7.55238095 85.8,6.31428571 84.6238095,6.31428571 C83.3857143,6.31428571 83.1380952,7.3047619 83.1380952,8.2952381 L83.1380952,12.1952381 L80.7238095,12.1952381 L80.7238095,4.3952381 L80.7238095,4.3952381 Z M77.1333333,11.2666667 L77.1333333,11.2666667 C76.5761905,12.1333333 75.5857143,12.4428571 74.5952381,12.4428571 C73.1095238,12.4428571 71.8095238,11.5761905 71.8095238,10.0285714 C71.8095238,7.3047619 75.0904762,7.24285714 77.1333333,7.24285714 C77.1333333,6.37619048 76.3904762,5.81904762 75.5857143,5.81904762 C74.7809524,5.81904762 74.1,6.19047619 73.6047619,6.74761905 L72.3047619,5.44761905 C73.1714286,4.58095238 74.4714286,4.20952381 75.7714286,4.20952381 C78.6190476,4.20952381 79.3619048,5.63333333 79.3619048,8.2952381 L79.3619048,12.3190476 L77.1333333,12.3190476 L77.1333333,11.2666667 L77.1333333,11.2666667 Z M70.6333333,12.2571429 L68.4047619,12.2571429 L68.4047619,11.2047619 L68.4047619,11.2047619 C68.0333333,11.7619048 67.1047619,12.4428571 65.9904762,12.4428571 C63.6380952,12.4428571 62.152381,10.7714286 62.152381,8.35714286 C62.152381,6.19047619 63.5142857,4.14761905 65.7428571,4.14761905 C66.7333333,4.14761905 67.6619048,4.3952381 68.2190476,5.2 L68.2809524,5.2 L68.2809524,-4.61852778e-14 L70.6952381,-4.61852778e-14 L70.6952381,12.2571429 L70.6333333,12.2571429 Z M56.2095238,4.3952381 L58.6238095,4.3952381 L58.6238095,5.63333333 L58.6857143,5.63333333 C59.1809524,4.7047619 59.8619048,4.14761905 60.9761905,4.14761905 C61.2238095,4.14761905 61.5333333,4.14761905 61.7809524,4.20952381 L61.7809524,6.43809524 C61.4714286,6.31428571 61.1,6.25238095 60.7285714,6.25238095 C58.8714286,6.25238095 58.6857143,7.3047619 58.6857143,8.91428571 L58.6857143,12.1952381 L56.2714286,12.1952381 L56.2714286,4.3952381 L56.2095238,4.3952381 Z M52.4333333,7.42857143 C52.4333333,6.62380952 51.8142857,5.94285714 50.947619,5.94285714 C49.8952381,5.94285714 49.2761905,6.68571429 49.2142857,7.42857143 L52.4333333,7.42857143 Z M45.8095238,6.31428571 L43.6428571,6.31428571 L43.6428571,8.91428571 C43.6428571,9.78095238 43.7666667,10.4 44.8190476,10.4 C45.0666667,10.4 45.6238095,10.3380952 45.8095238,10.152381 L45.8095238,12.1952381 C45.252381,12.3809524 44.6952381,12.4428571 44.1380952,12.4428571 C42.5285714,12.4428571 41.2904762,11.7619048 41.2904762,10.0904762 L41.2904762,6.37619048 L39.7428571,6.37619048 L39.7428571,4.45714286 L41.2904762,4.45714286 L41.2904762,2.1047619 L43.7047619,2.1047619 L43.7047619,4.45714286 L45.8714286,4.45714286 L45.8714286,6.31428571 L45.8095238,6.31428571 Z M37.452381,6.68571429 C37.0809524,6.25238095 36.647619,6.0047619 36.0285714,6.0047619 C35.5952381,6.0047619 35.1619048,6.19047619 35.1619048,6.62380952 C35.1619048,7.8 39.247619,6.80952381 39.247619,9.78095238 C39.247619,11.7619048 37.3285714,12.3809524 35.5952381,12.3809524 C34.4809524,12.3809524 33.3047619,12.1333333 32.5,11.3285714 L33.9857143,9.71904762 C34.4190476,10.2761905 34.9761905,10.5857143 35.7190476,10.5857143 C36.2761905,10.5857143 36.8333333,10.4619048 36.8333333,10.0285714 C36.8333333,8.79047619 32.747619,9.84285714 32.747619,6.80952381 C32.747619,4.95238095 34.4190476,4.14761905 36.0285714,4.14761905 C37.0809524,4.14761905 38.1952381,4.3952381 38.9380952,5.2 L37.452381,6.68571429 Z M54.4761905,10.8952381 C53.6714286,11.8857143 52.4333333,12.4428571 51.1333333,12.4428571 C48.7190476,12.4428571 46.7380952,10.8333333 46.7380952,8.2952381 C46.7380952,5.75714286 48.6571429,4.14761905 51.1333333,4.14761905 C53.4238095,4.14761905 54.847619,5.75714286 54.847619,8.2952381 L54.847619,9.03809524 L49.2142857,9.03809524 C49.4,9.96666667 50.0809524,10.5857143 51.0714286,10.5857143 C51.8761905,10.5857143 52.3714286,10.152381 52.8047619,9.65714286 L54.4761905,10.8952381 Z" id="Shape" fill="#000000"></path>
                </g>
                <g id="MapItOut" transform="translate(128.152000, 10.384000)" fill-rule="nonzero">
                    <path d="M27.92,3.648 C28.4960029,3.648 29.0186643,3.74666568 29.488,3.944 C29.9573357,4.14133432 30.3599983,4.41866488 30.696,4.776 C31.0320017,5.13333512 31.2906658,5.55733088 31.472,6.048 C31.6533342,6.53866912 31.744,7.0773304 31.744,7.664 C31.744,8.20800272 31.6613342,8.72799752 31.496,9.224 C31.3306658,9.72000248 31.0960015,10.1599981 30.792,10.544 C30.4879985,10.9280019 30.1173355,11.2346655 29.68,11.464 C29.2426645,11.6933345 28.7466694,11.808 28.192,11.808 C27.6906642,11.808 27.2240022,11.7306674 26.792,11.576 C26.3599978,11.4213326 26.0053347,11.1573352 25.728,10.784 L25.696,10.784 L25.696,15.264 L23.296,15.264 L23.296,3.84 L25.504,3.84 L25.504,4.864 L25.536,4.864 C25.6320005,4.72533264 25.7573326,4.58400072 25.912,4.44 C26.0666674,4.29599928 26.247999,4.16533392 26.456,4.048 C26.664001,3.93066608 26.8906654,3.83466704 27.136,3.76 C27.3813346,3.68533296 27.6426653,3.648 27.92,3.648 Z M18.176,3.648 C18.8800035,3.648 19.4586644,3.73599912 19.912,3.912 C20.3653356,4.08800088 20.7279986,4.34666496 21,4.688 C21.2720014,5.02933504 21.4613328,5.44799752 21.568,5.944 C21.6746672,6.44000248 21.728,7.01333008 21.728,7.664 L21.728,11.616 L19.52,11.616 L19.52,10.64 L19.488,10.64 C19.221332,11.0560021 18.8666689,11.3546658 18.424,11.536 C17.9813311,11.7173342 17.5146691,11.808 17.024,11.808 C16.6613315,11.808 16.3120017,11.7573338 15.976,11.656 C15.6399983,11.5546662 15.3440013,11.4026677 15.088,11.2 C14.8319987,10.9973323 14.6293341,10.7466682 14.48,10.448 C14.3306659,10.1493318 14.256,9.80266864 14.256,9.408 C14.256,8.95999776 14.3386658,8.58133488 14.504,8.272 C14.6693342,7.96266512 14.8933319,7.70666768 15.176,7.504 C15.4586681,7.30133232 15.7813315,7.14400056 16.144,7.032 C16.5066685,6.91999944 16.8826647,6.8373336 17.272,6.784 C17.6613353,6.7306664 18.0506647,6.69866672 18.44,6.688 L19.1795553,6.67377777 C19.2962958,6.67259259 19.4097772,6.672 19.52,6.672 C19.52,6.2453312 19.3680015,5.90666792 19.064,5.656 C18.7599985,5.40533208 18.4000021,5.28 17.984,5.28 C17.5893314,5.28 17.229335,5.36266584 16.904,5.528 C16.578665,5.69333416 16.2880013,5.91999856 16.032,6.208 L14.752,4.896 C15.2000022,4.47999792 15.7226637,4.16800104 16.32,3.96 C16.9173363,3.75199896 17.5359968,3.648 18.176,3.648 Z M3.776,0.288 L6.384,7.68 L6.416,7.68 L9.04,0.288 L12.8,0.288 L12.8,11.616 L10.304,11.616 L10.304,2.928 L10.272,2.928 L7.296,11.616 L5.392,11.616 L2.528,2.928 L2.496,2.928 L2.496,11.616 L2.84217094e-13,11.616 L2.84217094e-13,0.288 L3.776,0.288 Z M19.52,8.208 L18.928,8.208 L18.6220002,8.21399997 C18.5086671,8.21799996 18.3840007,8.22399996 18.248,8.232 C17.9759986,8.24800008 17.7146679,8.29333296 17.464,8.368 C17.2133321,8.44266704 17.0000009,8.55466592 16.824,8.704 C16.6479991,8.85333408 16.56,9.061332 16.56,9.328 C16.56,9.61600144 16.6826654,9.82933264 16.928,9.968 C17.1733346,10.1066674 17.429332,10.176 17.696,10.176 C17.9306678,10.176 18.1573322,10.1440003 18.376,10.08 C18.5946678,10.0159997 18.7893325,9.92533392 18.96,9.808 C19.1306675,9.69066608 19.2666662,9.54133424 19.368,9.36 C19.4693338,9.17866576 19.52,8.96533456 19.52,8.72 L19.52,8.208 Z M27.424,5.76 C26.815997,5.76 26.3440017,5.94133152 26.008,6.304 C25.6719983,6.66666848 25.504,7.1413304 25.504,7.728 C25.504,8.3146696 25.6719983,8.78933152 26.008,9.152 C26.3440017,9.51466848 26.815997,9.696 27.424,9.696 C28.032003,9.696 28.504,9.51466848 28.84,9.152 C29.1760017,8.78933152 29.344,8.3146696 29.344,7.728 C29.344,7.1413304 29.1760017,6.66666848 28.84,6.304 C28.504,5.94133152 28.032003,5.76 27.424,5.76 Z" id="Map" fill="#FD000C"></path>
                    <path d="M33.264,0.288 L35.76,0.288 L35.76,11.616 L33.264,11.616 L33.264,0.288 Z M42.864,5.76 L40.752,5.76 L40.752,8.352 C40.752,8.5653344 40.7626666,8.75999912 40.784,8.936 C40.8053334,9.11200088 40.853333,9.26399936 40.928,9.392 C41.002667,9.52000064 41.1173326,9.61866632 41.272,9.688 C41.4266674,9.75733368 41.6319987,9.792 41.888,9.792 C42.0160006,9.792 42.183999,9.7786668 42.392,9.752 C42.600001,9.7253332 42.7573328,9.66400048 42.864,9.568 L42.864,11.568 C42.597332,11.6640005 42.3200014,11.7279998 42.032,11.76 C41.7439986,11.7920002 41.4613347,11.808 41.184,11.808 C40.7786646,11.808 40.405335,11.7653338 40.064,11.68 C39.722665,11.5946662 39.4240013,11.4586676 39.168,11.272 C38.9119987,11.0853324 38.7120007,10.8426682 38.568,10.544 C38.4239993,10.2453318 38.352,9.8826688 38.352,9.456 L38.352,5.76 L36.816,5.76 L36.816,3.84 L38.352,3.84 L38.352,1.536 L40.752,1.536 L40.752,3.84 L42.864,3.84 L42.864,5.76 Z" id="It" fill="#000000"></path>
                    <path d="M43.616,5.952 C43.616,5.0453288 43.7679985,4.22400368 44.072,3.488 C44.3760015,2.75199632 44.7999973,2.12533592 45.344,1.608 C45.8880027,1.09066408 46.5333296,0.69333472 47.28,0.416 C48.0266704,0.13866528 48.8426622,-1.77635684e-15 49.728,-1.77635684e-15 C50.6133378,-1.77635684e-15 51.4293296,0.13866528 52.176,0.416 C52.9226704,0.69333472 53.5679973,1.09066408 54.112,1.608 C54.6560027,2.12533592 55.0799985,2.75199632 55.384,3.488 C55.6880015,4.22400368 55.84,5.0453288 55.84,5.952 C55.84,6.8586712 55.6880015,7.67999632 55.384,8.416 C55.0799985,9.15200368 54.6560027,9.77866408 54.112,10.296 C53.5679973,10.8133359 52.9226704,11.2106653 52.176,11.488 C51.4293296,11.7653347 50.6133378,11.904 49.728,11.904 C48.8426622,11.904 48.0266704,11.7653347 47.28,11.488 C46.5333296,11.2106653 45.8880027,10.8133359 45.344,10.296 C44.7999973,9.77866408 44.3760015,9.15200368 44.072,8.416 C43.7679985,7.67999632 43.616,6.8586712 43.616,5.952 Z M46.208,5.952 C46.208,6.485336 46.2906658,6.97333112 46.456,7.416 C46.6213342,7.85866888 46.8586651,8.24266504 47.168,8.568 C47.4773349,8.89333496 47.8479978,9.14666576 48.28,9.328 C48.7120022,9.50933424 49.194664,9.6 49.728,9.6 C50.261336,9.6 50.7439978,9.50933424 51.176,9.328 C51.6080022,9.14666576 51.9786651,8.89333496 52.288,8.568 C52.5973349,8.24266504 52.8346658,7.85866888 53,7.416 C53.1653342,6.97333112 53.248,6.485336 53.248,5.952 C53.248,5.42933072 53.1653342,4.94400224 53,4.496 C52.8346658,4.04799776 52.5973349,3.66133496 52.288,3.336 C51.9786651,3.01066504 51.6080022,2.75733424 51.176,2.576 C50.7439978,2.39466576 50.261336,2.304 49.728,2.304 C49.194664,2.304 48.7120022,2.39466576 48.28,2.576 C47.8479978,2.75733424 47.4773349,3.01066504 47.168,3.336 C46.8586651,3.66133496 46.6213342,4.04799776 46.456,4.496 C46.2906658,4.94400224 46.208,5.42933072 46.208,5.952 Z M64.56,11.616 L62.256,11.616 L62.256,10.56 L62.224,10.56 C62.1386662,10.7093341 62.029334,10.8586659 61.896,11.008 C61.762666,11.1573341 61.600001,11.2906661 61.408,11.408 C61.215999,11.5253339 60.9973346,11.621333 60.752,11.696 C60.5066654,11.770667 60.2400014,11.808 59.952,11.808 C59.343997,11.808 58.8506686,11.7146676 58.472,11.528 C58.0933314,11.3413324 57.800001,11.0826683 57.592,10.752 C57.383999,10.4213317 57.2453337,10.0320022 57.176,9.584 C57.1066663,9.13599776 57.072,8.65066928 57.072,8.128 L57.072,3.84 L59.472,3.84 L59.472,7.648 C59.472,7.87200112 59.4799999,8.1039988 59.496,8.344 C59.5120001,8.5840012 59.5599996,8.80533232 59.64,9.008 C59.7200004,9.21066768 59.8426658,9.37599936 60.008,9.504 C60.1733342,9.63200064 60.4106651,9.696 60.72,9.696 C61.0293349,9.696 61.279999,9.64000056 61.472,9.528 C61.664001,9.41599944 61.8106662,9.2666676 61.912,9.08 C62.0133338,8.8933324 62.0799998,8.68266784 62.112,8.448 C62.1440002,8.21333216 62.16,7.96800128 62.16,7.712 L62.16,3.84 L64.56,3.84 L64.56,11.616 Z M71.392,5.76 L69.28,5.76 L69.28,8.352 C69.28,8.5653344 69.2906666,8.75999912 69.312,8.936 C69.3333334,9.11200088 69.381333,9.26399936 69.456,9.392 C69.530667,9.52000064 69.6453326,9.61866632 69.8,9.688 C69.9546674,9.75733368 70.1599987,9.792 70.416,9.792 C70.5440006,9.792 70.711999,9.7786668 70.92,9.752 C71.128001,9.7253332 71.2853328,9.66400048 71.392,9.568 L71.392,11.568 C71.125332,11.6640005 70.8480014,11.7279998 70.56,11.76 C70.2719986,11.7920002 69.9893347,11.808 69.712,11.808 C69.3066646,11.808 68.933335,11.7653338 68.592,11.68 C68.250665,11.5946662 67.9520013,11.4586676 67.696,11.272 C67.4399987,11.0853324 67.2400007,10.8426682 67.096,10.544 C66.9519993,10.2453318 66.88,9.8826688 66.88,9.456 L66.88,5.76 L65.344,5.76 L65.344,3.84 L66.88,3.84 L66.88,1.536 L69.28,1.536 L69.28,3.84 L71.392,3.84 L71.392,5.76 Z" id="Out" fill="#FD000C"></path>
                </g>
            </g>
        </g>
    </g>
</svg>