<?xml version="1.0" encoding="UTF-8"?>
<svg width="30px" height="30px" viewBox="0 0 30 30" version="1.1" xmlns="http://www.w3.org/2000/svg" xmlns:xlink="http://www.w3.org/1999/xlink">
    <!-- Generator: Sketch 58 (84663) - https://sketch.com -->
    <title>Shape</title>
    <desc>Created with Sketch.</desc>
    <g id="Page-1" stroke="none" stroke-width="1" fill="none" fill-rule="evenodd">
        <g id="Artboard-Copy-4" transform="translate(-1313.000000, -797.000000)" fill="currentColor" fill-rule="nonzero">
            <path d="M1339.66667,797 L1316.33333,797 C1314.48333,797 1313,798.5 1313,800.333333 L1313,823.666667 C1313,825.5 1314.48333,827 1316.33333,827 L1339.66667,827 C1341.5,827 1343,825.5 1343,823.666667 L1343,800.333333 C1343,798.5 1341.5,797 1339.66667,797 Z M1336.33333,813.666667 L1329.66667,813.666667 L1329.66667,820.333333 L1326.33333,820.333333 L1326.33333,813.666667 L1319.66667,813.666667 L1319.66667,810.333333 L1326.33333,810.333333 L1326.33333,803.666667 L1329.66667,803.666667 L1329.66667,810.333333 L1336.33333,810.333333 L1336.33333,813.666667 Z" id="Shape"></path>
        </g>
    </g>
</svg>
