<?xml version="1.0" encoding="UTF-8"?>
<svg width="31px" height="31px" viewBox="0 0 31 31" version="1.1" xmlns="http://www.w3.org/2000/svg" xmlns:xlink="http://www.w3.org/1999/xlink">
    <!-- Generator: Sketch 61.2 (89653) - https://sketch.com -->
    <title>mixed</title>
    <desc>Created with Sketch.</desc>
    <g id="Page-1" stroke="none" stroke-width="1" fill="none" fill-rule="evenodd">
        <g id="Artboard" transform="translate(-120.000000, -119.000000)">
            <g id="mixed" transform="translate(120.500000, 119.500000)">
                <circle id="Oval" fill-opacity="0.2" fill="#26AFB6" cx="15" cy="15" r="15"></circle>
                <g id="24px-37" transform="translate(5.000000, 5.000000)">
                    <polygon id="Path" points="0 0 20 0 20 20 0 20"></polygon>
                    <g id="Group-3" transform="translate(3.000000, 4.000000)" fill="#26AFB6">
                        <path d="M5.6035,4.99912149 L6.975,4.999 L2.96562874,7.1875 L5.729,8.695 L5.728,10 L1.5625,10 C0.872144063,10 0.3125,9.44035594 0.3125,8.75 L0.3125,5 L3.14555661,4.99937503 C3.15361147,5.47319625 3.51318186,5.86140383 3.9747146,5.9144446 L4.08291856,5.92062149 L4.66708144,5.92062149 C5.14786504,5.92062149 5.54411941,5.55870881 5.5982742,5.09245379 L5.6035,4.99912149 Z M4.66708144,3.42062149 C4.83967043,3.42062149 4.97958144,3.5605325 4.97958144,3.73312149 L4.97958144,4.98312149 C4.97958144,5.15571047 4.83967043,5.29562149 4.66708144,5.29562149 L4.08291856,5.29562149 C3.91032957,5.29562149 3.77041856,5.15571047 3.77041856,4.98312149 L3.77041856,3.73312149 C3.77041856,3.5605325 3.91032957,3.42062149 4.08291856,3.42062149 L4.66708144,3.42062149 Z M2.34375,0 C2.51633898,-3.17040821e-17 2.65625,0.139911016 2.65625,0.3125 L2.65625,0.625 L6.09375,0.625 L6.09375,0.3125 C6.09375,0.139911016 6.23366102,3.17040821e-17 6.40625,0 L7.65625,0 C7.82883898,-3.17040821e-17 7.96875,0.139911016 7.96875,0.3125 L7.96875,0.625 L8.75,0.625 L8.75,3.73312149 C8.75,4.07829946 8.47017797,4.35812149 8.125,4.35812149 L5.604,4.358 L5.60458144,3.73312149 C5.60458144,3.25233789 5.24266877,2.85608352 4.77641375,2.80192874 L4.66708144,2.79562149 L4.08291856,2.79562149 C3.60213496,2.79562149 3.20588059,3.15753417 3.1517258,3.62378918 L3.14541856,3.73312149 L3.145,4.358 L0.625,4.35812149 C0.279822031,4.35812149 -2.90794798e-16,4.07829946 0,3.73312149 L0,0.625 L0.78125,0.625 L0.78125,0.3125 C0.78125,0.139911016 0.921161016,3.17040821e-17 1.09375,0 L2.34375,0 Z" id="Combined-Shape"></path>
                        <path d="M6.35416667,9.36458333 L6.35416667,11.4479167 L10,13.4375 L13.6458333,11.4479167 L13.6458333,9.36458333 L10,11.3541667 L6.35416667,9.36458333 Z M10,4.0625 L4.27083333,7.1875 L10,10.3125 L14.6875,7.75520833 L14.6875,11.3541667 L15.7291667,11.3541667 L15.7291667,7.1875 L10,4.0625 Z" id="Shape" fill-rule="nonzero"></path>
                    </g>
                </g>
            </g>
        </g>
    </g>
</svg>