<svg viewBox="0 0 32 32" xmlns="http://www.w3.org/2000/svg" xmlns:xlink="http://www.w3.org/1999/xlink">
    <defs>
        <radialGradient cx="69.131%" cy="66.83%" fx="69.131%" fy="66.83%" r="65.04%" gradientTransform="matrix(-.7 -.71415 .64506 -.63226 .744 1.585)" id="a">
            <stop stop-color="#FFF" offset="0%"/>
            <stop stop-color="#FFF" offset="60.458%"/>
            <stop stop-color="#E6E3E3" offset="100%"/>
        </radialGradient>
        <path d="M15.962 4C14.336 4 10.366 7.557 8 11.271h2.17c0 5.29 4.75 12.22 5.794 12.22 1.01 0 5.793-7.057 5.793-12.22h2.17C21.56 7.557 17.522 4 15.962 4zm-.033 10.885a3.013 3.013 0 1 1 0-6.026 3.013 3.013 0 0 1 0 6.026z" id="c"/>
        <filter x="-47.1%" y="-23.1%" width="169.1%" height="156.4%" filterUnits="objectBoundingBox" id="b">
            <feOffset dx="-2" dy="1" in="SourceAlpha" result="shadowOffsetOuter1"/>
            <feGaussianBlur stdDeviation="1.5" in="shadowOffsetOuter1" result="shadowBlurOuter1"/>
            <feColorMatrix values="0 0 0 0 0.343989158 0 0 0 0 0.0167963456 0 0 0 0 0.0167963456 0 0 0 0.444633152 0" in="shadowBlurOuter1"/>
        </filter>
    </defs>
    <g fill="none" fill-rule="evenodd">
        <rect fill="#000" fill-rule="nonzero" width="31.876" height="31.876" rx="7.228"/>
        <ellipse fill="#FFF" fill-rule="nonzero" cx="15.927" cy="23.592" rx="10.677" ry="4.342"/>
        <ellipse fill="#000" fill-rule="nonzero" cx="16" cy="23.5" rx="8.25" ry="3.25"/>
        <circle fill="url(#a)" cx="9.875" cy="26.125" r="1.875"/>
        <g fill-rule="nonzero">
            <use fill="#000" filter="url(#b)" xlink:href="#c"/>
            <use fill="#FFF" xlink:href="#c"/>
        </g>
    </g>
</svg>
