<?xml version="1.0" encoding="UTF-8"?>
<svg width="31px" height="31px" viewBox="0 0 31 31" version="1.1" xmlns="http://www.w3.org/2000/svg" xmlns:xlink="http://www.w3.org/1999/xlink">
    <!-- Generator: Sketch 61.2 (89653) - https://sketch.com -->
    <title>primary</title>
    <desc>Created with Sketch.</desc>
    <g id="Page-1" stroke="none" stroke-width="1" fill="none" fill-rule="evenodd">
        <g id="Artboard" transform="translate(-82.000000, -119.000000)">
            <g id="primary" transform="translate(82.500000, 119.500000)">
                <circle id="Oval" fill-opacity="0.2" fill="#30A0CF" cx="15" cy="15" r="15"></circle>
                <g id="Group-2" transform="translate(8.000000, 7.000000)" fill="#3699DC">
                    <path d="M14,1 L14,5.97299438 C14,6.52527913 13.5522847,6.97299438 13,6.97299438 L8.967,6.972 L8.96733031,5.97299438 C8.96733031,5.19329826 8.37244223,4.5525457 7.61179032,4.47986096 L7.46733031,4.47299438 L6.53266969,4.47299438 C5.70424256,4.47299438 5.03266969,5.14456726 5.03266969,5.97299438 L5.03266969,5.97299438 L5.032,6.972 L1,6.97299438 C0.44771525,6.97299438 5.58162771e-16,6.52527913 0,5.97299438 L0,1 L14,1 Z" id="Combined-Shape"></path>
                    <path d="M13.5,8 L13.5,14 C13.5,15.1045695 12.6045695,16 11.5,16 L2.5,16 C1.3954305,16 0.5,15.1045695 0.5,14 L0.5,8 L5.03291408,8.00034764 C5.04750288,8.81615392 5.71337963,9.47299438 6.53266969,9.47299438 L6.53266969,9.47299438 L7.46733031,9.47299438 C8.29575744,9.47299438 8.96733031,8.80142151 8.96733031,7.97299438 L8.966,7.99999438 L13.5,8 Z" id="Combined-Shape"></path>
                    <rect id="Rectangle" x="6.03266969" y="5.47299438" width="1.93466062" height="3" rx="0.5"></rect>
                    <path d="M1.75,0 L3.75,0 C4.02614237,-5.07265313e-17 4.25,0.223857625 4.25,0.5 L4.25,1 L4.25,1 L1.25,1 L1.25,0.5 C1.25,0.223857625 1.47385763,5.07265313e-17 1.75,0 Z" id="Rectangle"></path>
                    <path d="M10.25,0 L12.25,0 C12.5261424,-5.07265313e-17 12.75,0.223857625 12.75,0.5 L12.75,1 L12.75,1 L9.75,1 L9.75,0.5 C9.75,0.223857625 9.97385763,5.07265313e-17 10.25,0 Z" id="Rectangle-Copy-2"></path>
                </g>
            </g>
        </g>
    </g>
</svg>